<svg width="557" height="151" viewBox="0 0 557 151" fill="none" xmlns="http://www.w3.org/2000/svg">
<g filter="url(#filter0_d_0_291)">
<mask id="path-1-inside-1_0_291" fill="white">
<path d="M374.893 118.895C375.103 116.733 374.338 114.832 372.822 113.033C371.276 111.203 370.505 109.226 371.668 107.044L371.853 106.548C372.537 104.582 372.223 102.767 370.367 101.26C368.973 100.126 368.591 98.8242 368.998 97.3272C369.537 95.3604 369.359 93.536 367.845 91.7725C366.532 90.2422 366.306 88.5523 367.349 86.7417C368.23 85.2217 368.804 83.5811 369.362 81.9635C369.797 80.7032 369.801 79.3683 369.192 78.1424C368.7 77.1418 368.828 76.2342 369.133 75.2496C369.459 74.211 369.641 73.138 369.817 72.0765C369.956 71.2596 369.608 70.5358 368.828 69.9752C367.803 69.2399 367.447 68.3254 367.618 67.2823C367.823 66.0863 368.118 64.903 367.319 63.7518C367.177 63.5508 367.261 63.2429 367.283 62.9855C367.481 60.9072 366.81 58.9737 365.767 57.0907C365.169 56.0062 364.917 54.8642 365.072 53.6832C365.376 51.3924 365.191 49.1062 364.682 46.8613C364.133 44.4464 363.268 42.0797 362.617 39.6786C362.391 38.848 362.242 37.9737 362.309 37.1327C362.444 35.4175 362.707 33.7045 363 31.9973C363.354 29.9397 363.999 27.9441 365.133 26.0462C366.221 24.2092 367.231 22.3423 368.239 20.4777C368.6 19.8045 368.91 19.1071 369.126 18.3971C369.39 17.5435 369.377 16.6819 368.716 15.9053C367.838 14.8747 366.681 14.6817 365.529 15.5457C364.592 16.2579 363.707 17.0713 363.077 17.9606C361.842 19.7091 360.42 21.329 358.708 22.8087C357.515 23.8393 357.005 25.0697 356.932 26.4736C356.797 29.2022 356.001 31.7584 353.475 33.8229C352.755 34.4122 352.124 35.0751 351.544 35.7541C350.958 36.4273 350.344 37.1247 350.01 37.8841C349.219 39.6706 348.357 41.472 347.953 43.3274C347.417 45.7986 346.588 48.1905 345.75 50.6031C345.054 52.6067 343.863 54.253 342.068 55.6983C340.931 56.6139 340.135 57.6985 339.639 58.8967C339.044 60.3317 338.524 61.7827 338.028 63.2406C337.805 63.9046 337.649 64.5905 337.567 65.2718C337.185 68.5322 336.882 71.7996 336.459 75.052C336.357 75.8229 336.446 76.6788 335.762 77.3796L335.47 77.1797C334.378 76.0044 334.246 74.643 334.079 73.254C333.69 69.9982 333.267 66.7503 333.436 63.4715C333.484 62.4812 333.436 61.4886 333.474 60.4982C333.508 59.6883 333.074 59.0863 332.29 58.6026C331.991 58.42 331.682 58.2511 331.337 58.05C331.399 57.44 331.462 56.8414 331.522 56.2452C331.663 54.7896 331.409 53.4373 330.206 52.2161C329.776 51.7841 329.589 51.0994 329.595 50.5342C329.611 49.074 329.786 47.6103 329.936 46.1524C330.051 44.9438 329.494 43.9616 328.416 43.1309C328.14 42.923 327.781 42.753 327.585 42.5083C327.276 42.128 326.828 41.688 326.859 41.2916C326.953 39.8797 327.112 38.4574 327.463 37.0741C327.739 35.9839 328.373 34.9522 328.773 33.8769C329.488 31.933 330.239 29.996 330.804 28.0234C331.093 27.0147 330.453 26.3105 329.366 25.9279C328.328 25.5545 327.458 25.6453 326.629 26.5322C325.197 28.0556 323.859 29.6422 322.644 31.269C322.108 31.9916 321.888 32.8762 321.647 33.7103C321.249 35.1096 320.823 36.5009 319.487 37.5601C318.043 38.7067 317.253 40.1037 316.742 41.6282C316.66 41.8798 316.495 42.1165 316.304 42.4818C315.404 40.6666 315.035 40.4886 313.084 40.8539C313.013 40.6069 312.988 40.3472 312.866 40.1175C312.324 39.0915 311.292 38.9318 310.32 39.7521C309.913 40.091 309.497 40.4828 309.298 40.9113C308.544 42.5289 307.786 44.15 307.196 45.8032C306.611 47.4621 306.315 49.182 305.748 50.8432C304.491 54.5 303.568 58.235 301.552 61.7172C301.307 62.1411 301.214 62.6248 301.103 63.0878C300.518 65.5797 300.606 68.0589 301.279 70.5358C302.085 73.4827 302.006 76.4456 301.418 79.4085C301.042 81.3236 299.608 82.8022 298.058 84.2199C295.606 86.459 294.535 89.0359 294.841 91.9862C294.987 93.4211 295.377 94.786 296.115 96.1049C297.399 98.3819 297.872 100.715 296.712 103.13C296.516 103.532 296.375 103.96 296.311 104.382C296.136 105.453 296.083 106.502 296.706 107.549C297.058 108.147 297.215 108.868 297.223 109.536C297.246 112.167 297.165 114.796 297.159 117.427C297.156 117.891 297.267 118.37 297.43 118.82C297.656 119.473 298.142 120.008 299.035 120.17C300 120.345 300.592 119.852 301.091 119.32C301.985 118.365 302.617 117.311 302.77 116.126C303.046 113.995 303.94 112.025 305.003 110.072C305.484 109.181 305.682 108.161 305.764 107.188C305.921 105.281 305.385 103.418 304.879 101.561C304.754 101.106 304.663 100.61 304.764 100.159C305.268 97.9442 306.349 95.8946 308.502 94.3839C310.274 93.1305 311.01 91.7162 310.704 89.9113C310.635 89.4817 310.678 89.0394 310.562 88.62C310.198 87.3207 310.414 86.0684 310.785 84.7874C311.292 83.0262 311.863 81.2547 312.051 79.4613C312.363 76.4846 313.013 73.5746 313.909 70.684C314.533 68.6781 314.545 66.6872 313.629 64.7054C312.741 62.7764 312.819 60.8222 313.678 58.8703C314.106 57.8949 314.341 56.8713 314.753 55.8925C315.207 54.8068 315.522 53.6556 316.811 52.5516C316.915 53.1766 317.061 53.581 317.037 53.9739C316.948 55.2652 316.833 56.5542 316.669 57.834C316.461 59.4987 316.917 60.9245 318.802 61.8999C319.641 62.3295 320.071 62.9488 320.234 63.7104C320.4 64.4744 320.891 65.1948 321.729 65.4958C323.715 66.2138 324.047 67.5476 324.232 68.9952L324.28 69.3812C324.672 71.9581 325.251 74.4707 326.887 76.8052C327.548 77.7461 327.638 78.942 327.93 80.0312C328.127 80.7423 328.044 81.5281 328.392 82.183C329.08 83.4869 328.965 84.7817 328.79 86.1236C328.432 88.9808 329.419 90.6317 332.653 91.1326C333.453 91.2555 333.9 91.6369 333.975 92.2826C334.058 92.9237 334.166 93.5624 334.271 94.2035C334.547 95.8751 334.879 97.5409 336.213 98.946C336.993 99.7663 337.988 100.24 339.353 99.9926C340.479 99.787 341.407 98.8897 341.532 97.7971C341.651 96.8091 341.752 95.8107 341.68 94.8262C341.482 92.1413 342.49 89.7321 344.124 87.4172C344.59 86.7566 344.958 85.9949 345.089 85.2481C345.327 83.8879 345.409 82.5047 345.461 81.1283C345.556 78.6445 346.129 76.3215 348.683 74.5867L349.015 74.2983C351.309 71.8398 352.608 69.1836 351.802 66.0771C351.188 63.6909 351.717 61.3656 352.529 59.0668C352.686 58.6164 352.923 58.1821 353.127 57.7398C353.406 58.2695 353.406 58.7428 353.406 59.2161C353.409 60.6775 353.982 61.9194 355.588 62.7914C355.989 63.0097 356.328 63.3083 356.654 63.6013C357.45 64.3239 357.873 65.1385 357.525 66.1058C357.202 67.0192 356.878 67.9291 356.522 68.8378C355.832 70.6048 354.823 72.3372 354.491 74.1433C354.021 76.7041 354.181 79.3097 355.457 81.7866C355.717 82.2979 355.979 82.8459 356.023 83.3893C356.108 84.6369 356.154 85.8938 356.052 87.1392C355.701 91.3348 357.164 95.0605 360.633 98.2842C361.533 99.1183 361.611 99.9949 361.278 101.052C360.819 102.503 360.514 103.995 360.37 105.485C360.21 107.086 361.054 108.339 363.091 108.953L363.373 109.183C363.373 109.997 363.384 110.859 363.366 111.717C363.35 112.859 363.833 113.844 364.937 114.592C365.805 115.184 366.695 115.783 367.679 116.246C368.682 116.721 368.985 117.33 368.839 118.194C368.7 119.004 368.649 119.822 368.58 120.64C368.524 121.327 368.742 121.931 369.591 122.278C370.377 122.599 370.953 122.226 371.54 121.894L371.859 121.88L372.069 122.06C373.031 122.818 373.652 122.946 374.505 122.567C375.353 122.185 375.529 121.631 375.221 120.664C375.037 120.086 374.837 119.474 374.893 118.895Z"/>
</mask>
<path d="M374.893 118.895C375.103 116.733 374.338 114.832 372.822 113.033C371.276 111.203 370.505 109.226 371.668 107.044L371.853 106.548C372.537 104.582 372.223 102.767 370.367 101.26C368.973 100.126 368.591 98.8242 368.998 97.3272C369.537 95.3604 369.359 93.536 367.845 91.7725C366.532 90.2422 366.306 88.5523 367.349 86.7417C368.23 85.2217 368.804 83.5811 369.362 81.9635C369.797 80.7032 369.801 79.3683 369.192 78.1424C368.7 77.1418 368.828 76.2342 369.133 75.2496C369.459 74.211 369.641 73.138 369.817 72.0765C369.956 71.2596 369.608 70.5358 368.828 69.9752C367.803 69.2399 367.447 68.3254 367.618 67.2823C367.823 66.0863 368.118 64.903 367.319 63.7518C367.177 63.5508 367.261 63.2429 367.283 62.9855C367.481 60.9072 366.81 58.9737 365.767 57.0907C365.169 56.0062 364.917 54.8642 365.072 53.6832C365.376 51.3924 365.191 49.1062 364.682 46.8613C364.133 44.4464 363.268 42.0797 362.617 39.6786C362.391 38.848 362.242 37.9737 362.309 37.1327C362.444 35.4175 362.707 33.7045 363 31.9973C363.354 29.9397 363.999 27.9441 365.133 26.0462C366.221 24.2092 367.231 22.3423 368.239 20.4777C368.6 19.8045 368.91 19.1071 369.126 18.3971C369.39 17.5435 369.377 16.6819 368.716 15.9053C367.838 14.8747 366.681 14.6817 365.529 15.5457C364.592 16.2579 363.707 17.0713 363.077 17.9606C361.842 19.7091 360.42 21.329 358.708 22.8087C357.515 23.8393 357.005 25.0697 356.932 26.4736C356.797 29.2022 356.001 31.7584 353.475 33.8229C352.755 34.4122 352.124 35.0751 351.544 35.7541C350.958 36.4273 350.344 37.1247 350.01 37.8841C349.219 39.6706 348.357 41.472 347.953 43.3274C347.417 45.7986 346.588 48.1905 345.75 50.6031C345.054 52.6067 343.863 54.253 342.068 55.6983C340.931 56.6139 340.135 57.6985 339.639 58.8967C339.044 60.3317 338.524 61.7827 338.028 63.2406C337.805 63.9046 337.649 64.5905 337.567 65.2718C337.185 68.5322 336.882 71.7996 336.459 75.052C336.357 75.8229 336.446 76.6788 335.762 77.3796L335.47 77.1797C334.378 76.0044 334.246 74.643 334.079 73.254C333.69 69.9982 333.267 66.7503 333.436 63.4715C333.484 62.4812 333.436 61.4886 333.474 60.4982C333.508 59.6883 333.074 59.0863 332.29 58.6026C331.991 58.42 331.682 58.2511 331.337 58.05C331.399 57.44 331.462 56.8414 331.522 56.2452C331.663 54.7896 331.409 53.4373 330.206 52.2161C329.776 51.7841 329.589 51.0994 329.595 50.5342C329.611 49.074 329.786 47.6103 329.936 46.1524C330.051 44.9438 329.494 43.9616 328.416 43.1309C328.14 42.923 327.781 42.753 327.585 42.5083C327.276 42.128 326.828 41.688 326.859 41.2916C326.953 39.8797 327.112 38.4574 327.463 37.0741C327.739 35.9839 328.373 34.9522 328.773 33.8769C329.488 31.933 330.239 29.996 330.804 28.0234C331.093 27.0147 330.453 26.3105 329.366 25.9279C328.328 25.5545 327.458 25.6453 326.629 26.5322C325.197 28.0556 323.859 29.6422 322.644 31.269C322.108 31.9916 321.888 32.8762 321.647 33.7103C321.249 35.1096 320.823 36.5009 319.487 37.5601C318.043 38.7067 317.253 40.1037 316.742 41.6282C316.66 41.8798 316.495 42.1165 316.304 42.4818C315.404 40.6666 315.035 40.4886 313.084 40.8539C313.013 40.6069 312.988 40.3472 312.866 40.1175C312.324 39.0915 311.292 38.9318 310.32 39.7521C309.913 40.091 309.497 40.4828 309.298 40.9113C308.544 42.5289 307.786 44.15 307.196 45.8032C306.611 47.4621 306.315 49.182 305.748 50.8432C304.491 54.5 303.568 58.235 301.552 61.7172C301.307 62.1411 301.214 62.6248 301.103 63.0878C300.518 65.5797 300.606 68.0589 301.279 70.5358C302.085 73.4827 302.006 76.4456 301.418 79.4085C301.042 81.3236 299.608 82.8022 298.058 84.2199C295.606 86.459 294.535 89.0359 294.841 91.9862C294.987 93.4211 295.377 94.786 296.115 96.1049C297.399 98.3819 297.872 100.715 296.712 103.13C296.516 103.532 296.375 103.96 296.311 104.382C296.136 105.453 296.083 106.502 296.706 107.549C297.058 108.147 297.215 108.868 297.223 109.536C297.246 112.167 297.165 114.796 297.159 117.427C297.156 117.891 297.267 118.37 297.43 118.82C297.656 119.473 298.142 120.008 299.035 120.17C300 120.345 300.592 119.852 301.091 119.32C301.985 118.365 302.617 117.311 302.77 116.126C303.046 113.995 303.94 112.025 305.003 110.072C305.484 109.181 305.682 108.161 305.764 107.188C305.921 105.281 305.385 103.418 304.879 101.561C304.754 101.106 304.663 100.61 304.764 100.159C305.268 97.9442 306.349 95.8946 308.502 94.3839C310.274 93.1305 311.01 91.7162 310.704 89.9113C310.635 89.4817 310.678 89.0394 310.562 88.62C310.198 87.3207 310.414 86.0684 310.785 84.7874C311.292 83.0262 311.863 81.2547 312.051 79.4613C312.363 76.4846 313.013 73.5746 313.909 70.684C314.533 68.6781 314.545 66.6872 313.629 64.7054C312.741 62.7764 312.819 60.8222 313.678 58.8703C314.106 57.8949 314.341 56.8713 314.753 55.8925C315.207 54.8068 315.522 53.6556 316.811 52.5516C316.915 53.1766 317.061 53.581 317.037 53.9739C316.948 55.2652 316.833 56.5542 316.669 57.834C316.461 59.4987 316.917 60.9245 318.802 61.8999C319.641 62.3295 320.071 62.9488 320.234 63.7104C320.4 64.4744 320.891 65.1948 321.729 65.4958C323.715 66.2138 324.047 67.5476 324.232 68.9952L324.28 69.3812C324.672 71.9581 325.251 74.4707 326.887 76.8052C327.548 77.7461 327.638 78.942 327.93 80.0312C328.127 80.7423 328.044 81.5281 328.392 82.183C329.08 83.4869 328.965 84.7817 328.79 86.1236C328.432 88.9808 329.419 90.6317 332.653 91.1326C333.453 91.2555 333.9 91.6369 333.975 92.2826C334.058 92.9237 334.166 93.5624 334.271 94.2035C334.547 95.8751 334.879 97.5409 336.213 98.946C336.993 99.7663 337.988 100.24 339.353 99.9926C340.479 99.787 341.407 98.8897 341.532 97.7971C341.651 96.8091 341.752 95.8107 341.68 94.8262C341.482 92.1413 342.49 89.7321 344.124 87.4172C344.59 86.7566 344.958 85.9949 345.089 85.2481C345.327 83.8879 345.409 82.5047 345.461 81.1283C345.556 78.6445 346.129 76.3215 348.683 74.5867L349.015 74.2983C351.309 71.8398 352.608 69.1836 351.802 66.0771C351.188 63.6909 351.717 61.3656 352.529 59.0668C352.686 58.6164 352.923 58.1821 353.127 57.7398C353.406 58.2695 353.406 58.7428 353.406 59.2161C353.409 60.6775 353.982 61.9194 355.588 62.7914C355.989 63.0097 356.328 63.3083 356.654 63.6013C357.45 64.3239 357.873 65.1385 357.525 66.1058C357.202 67.0192 356.878 67.9291 356.522 68.8378C355.832 70.6048 354.823 72.3372 354.491 74.1433C354.021 76.7041 354.181 79.3097 355.457 81.7866C355.717 82.2979 355.979 82.8459 356.023 83.3893C356.108 84.6369 356.154 85.8938 356.052 87.1392C355.701 91.3348 357.164 95.0605 360.633 98.2842C361.533 99.1183 361.611 99.9949 361.278 101.052C360.819 102.503 360.514 103.995 360.37 105.485C360.21 107.086 361.054 108.339 363.091 108.953L363.373 109.183C363.373 109.997 363.384 110.859 363.366 111.717C363.35 112.859 363.833 113.844 364.937 114.592C365.805 115.184 366.695 115.783 367.679 116.246C368.682 116.721 368.985 117.33 368.839 118.194C368.7 119.004 368.649 119.822 368.58 120.64C368.524 121.327 368.742 121.931 369.591 122.278C370.377 122.599 370.953 122.226 371.54 121.894L371.859 121.88L372.069 122.06C373.031 122.818 373.652 122.946 374.505 122.567C375.353 122.185 375.529 121.631 375.221 120.664C375.037 120.086 374.837 119.474 374.893 118.895Z" fill="#11B0C8" stroke="#87F54E" stroke-width="2" mask="url(#path-1-inside-1_0_291)"/>
<mask id="path-2-inside-2_0_291" fill="white">
<path d="M111.721 123.869C111.399 122.272 110.564 120.832 109.104 119.632C107.349 118.18 106.277 116.501 106.112 114.459C105.923 112.113 104.203 110.567 101.482 109.744C100.587 109.472 99.9513 109.103 99.5254 108.467C99.0158 107.705 98.4342 106.964 98.0098 106.175C97.4708 105.175 96.5295 104.502 95.265 104.281C93.789 104.022 93.137 103.32 92.8124 102.289C92.6905 101.911 92.5275 101.541 92.4541 101.158C91.9577 98.6864 90.2306 96.8746 87.5225 95.6258C86.6575 95.2248 86.2271 94.6665 85.8189 93.9738C84.9906 92.5721 84.2342 91.0775 83.0109 89.9056C81.2691 88.2363 79.075 86.9508 75.9792 87.9078L75.5885 87.8228C75.214 87.2093 74.8748 86.5245 74.4019 85.9019C73.2446 84.3923 72.4883 84.2578 70.5482 85.1333L70.2824 85.1459C70.1135 84.8736 69.9344 84.5726 69.742 84.2716C69.0782 83.233 68.4834 82.16 67.7271 81.1628C67.05 80.2667 66.2305 79.4545 64.6297 79.513C64.2229 79.528 63.7985 79.2304 63.0774 78.9662C63.8837 78.5285 64.3008 78.2378 64.781 78.0528C66.2775 77.4681 67.4084 76.6202 67.9723 75.3863C68.2293 74.8303 68.7066 74.5224 69.3469 74.3673C70.1326 74.18 70.9404 74.0123 71.7569 73.956C73.9525 73.8009 75.4094 72.7784 76.4771 71.4308C77.5785 70.0418 78.3906 68.5196 78.7328 66.8779C78.9076 66.03 79.097 65.258 80.2146 64.7422C80.7433 64.4986 81.0723 63.8518 81.2662 63.3383C81.5041 62.6845 81.6054 61.978 81.5951 61.299C81.579 60.118 81.9564 59.1311 83.0417 58.2522C85.0273 56.6542 85.5897 54.6793 85.1257 52.5114C84.7512 50.7605 84.5133 49.0453 85.346 47.2933C86.3358 45.2196 85.7043 43.3768 83.4397 41.9798C82.7465 41.5536 82.4895 41.0825 82.6085 40.4265C82.6804 40.0428 82.7304 39.6545 82.7524 39.2662C82.8317 37.937 82.9301 36.6077 82.9404 35.275C82.9404 34.9097 82.7759 34.4777 82.4954 34.1859C80.5275 32.1421 78.9443 31.5171 76.1672 32.2754C75.5944 32.4316 75.0202 32.6051 74.4283 32.6763C73.4722 32.7993 73.133 32.558 73.0302 31.8043C72.9582 31.2483 72.948 30.6831 72.804 30.1373C72.5147 28.9931 71.6703 28.437 70.1679 28.3761C69.6215 28.352 69.0606 28.3727 68.5245 28.4554C66.865 28.7105 65.4375 28.4945 64.0893 27.5984C63.1421 26.963 61.973 26.5207 60.851 26.0635C58.9007 25.2662 56.8931 24.5562 54.956 23.7416C53.7605 23.2327 52.5196 22.965 51.1743 22.9259C50.5164 22.9053 49.8394 22.9776 49.1947 22.8869C47.0578 22.5859 45.3322 23.1959 43.6947 24.1966C41.8707 25.3098 40.0129 26.3944 38.1052 27.4214C35.5997 28.7714 32.8887 29.448 29.834 28.684L29.1892 28.5818C27.9468 28.275 26.8247 28.5278 25.6851 28.9437C23.8479 29.6169 22.3191 30.5785 21.0135 31.7699C20.2468 32.4718 19.4685 32.7395 18.2848 32.3156C17.2332 31.9422 16.6253 32.0973 16.1245 32.743C14.929 34.2893 14.1551 36.8421 16.637 38.6837C17.038 38.9801 17.4389 39.2754 17.8633 39.55C19.583 40.6632 19.8151 42.0625 19.1807 43.6433C18.9046 44.3407 18.5991 45.0404 18.4346 45.7549C17.7664 48.6983 18.0601 51.4361 21.269 53.5373C21.9387 53.9739 22.5115 54.523 23.0475 55.0676C24.0065 56.043 24.7305 57.0793 24.2943 58.4039C23.9654 59.4011 23.8244 60.4351 23.5013 61.43C23.2281 62.2709 23.2281 63.0292 23.8626 63.7806C24.0902 64.0471 24.2503 64.4308 24.2106 64.7399C24.1064 65.5475 24.3267 66.2747 24.7702 66.9893C25.2475 67.7533 25.2857 68.5116 24.9772 69.3606C24.4706 70.7449 24.6659 72.0914 25.9113 73.2564C26.4429 73.7527 26.9247 74.2777 27.4563 74.774C28.2493 75.5093 28.64 76.2882 28.2684 77.2774C27.8469 78.3929 28.0687 79.4579 28.7119 80.5298C30.0807 82.8103 30.9677 85.2286 30.9809 87.7561C30.9839 89.1887 31.1586 90.6891 30.0616 92.0184C29.1349 93.1374 29.6636 94.2656 30.6108 95.1192C31.9267 96.3071 32.5406 97.7041 33.1985 99.1229C33.5069 99.7939 33.435 100.366 32.9518 100.96C31.5023 102.748 31.423 104.666 32.0119 106.681C32.4261 108.098 33.2411 109.359 34.2266 110.552C34.93 111.403 35.4587 112.283 35.657 113.275C35.8215 114.118 36.2489 114.826 37.1036 115.386C37.3738 115.563 37.6352 115.863 37.6646 116.127C37.8423 117.531 38.2697 118.915 37.7527 120.355C37.2269 121.818 37.6617 122.595 39.3682 123.39C40.5122 123.922 40.9322 124.678 40.9983 125.625C41.0483 126.356 40.9851 127.093 41.0321 127.824C41.1232 129.114 41.6269 130.28 42.9413 131.144C43.5361 131.536 44.1779 131.936 45.0194 131.657C45.8771 131.381 46.2266 130.779 46.2427 130.095C46.2662 129.281 46.2163 128.457 46.1473 127.641C46.0283 126.22 46.0944 124.87 47.9625 124.067L48.2063 123.895C50.1654 122.376 50.3695 120.78 49.0081 118.893C48.0095 117.504 47.5527 116.03 48.4457 114.449C48.7981 113.826 49.0904 113.139 49.1521 112.466C49.2079 111.806 49.1315 111.058 48.7673 110.482C48.0609 109.371 47.1298 108.343 46.253 107.298C44.8755 105.662 44.0971 103.994 45.5789 102.132L45.783 101.779C47.19 99.7709 47.3148 97.7638 45.7243 95.7763C45.2382 95.1686 45.1751 94.5861 45.7214 93.9738C46.7362 92.8479 46.5365 91.7208 45.7434 90.5685C45.2735 89.8895 44.8652 89.175 44.5362 88.4489C43.9047 87.0599 44.4775 86.2166 46.5908 85.6296C47.4294 86.3453 48.334 87.1553 49.2857 87.9296C50.7029 89.0762 52.4652 89.5185 54.4111 89.0842C55.8783 88.7579 56.7448 89.2336 57.4585 90.0768C58.2178 90.9764 58.8625 91.9334 59.6409 92.818C60.2621 93.5199 60.9391 94.2127 61.7292 94.7986C62.5546 95.419 63.1979 95.3374 64.0232 94.7148C65.555 93.5475 65.8839 93.5268 67.3467 94.7171C68.1485 95.3777 69.0136 95.8487 70.2222 95.7361C71.1269 95.6488 71.7011 95.9452 72.0594 96.5644C72.8246 97.8959 73.647 99.2114 74.3505 100.561C75.2317 102.258 76.6885 102.794 78.7886 102.1C79.0911 102 79.3878 101.883 79.6962 101.786C80.8829 101.411 81.0048 101.392 81.6847 102.291C82.5233 103.4 83.2884 104.548 83.9919 105.714C84.9362 107.271 86.4871 108.292 88.5828 108.579C89.8575 108.756 90.5287 109.225 91.0413 110.035C91.3085 110.46 91.6302 110.867 91.896 111.291C93.1326 113.253 94.5321 115.084 97.4224 115.812L97.9746 116.09C99.3991 116.861 100.743 117.661 100.838 119.204C100.937 120.738 101.739 122.121 102.469 123.52C102.968 124.475 103.695 125.243 104.871 125.737C105.827 126.142 106.479 126.743 106.86 127.556C107.224 128.322 107.666 129.07 108.129 129.801C108.776 130.814 109.953 131.445 110.778 131.274C111.637 131.097 112.089 130.358 112.047 129.091C112.031 128.536 111.665 127.918 111.872 127.438C112.415 126.207 111.959 125.042 111.721 123.869ZM61.5633 69.0217C61.2211 69.1917 60.7879 69.2618 60.3825 69.3307C59.4852 69.495 58.5482 69.5651 57.6773 69.7914C56.6919 70.0487 55.7153 70.3727 54.8077 70.7737C54.1101 71.085 53.436 71.4986 52.9337 71.98C52.2097 72.6762 51.3579 73.1598 50.1948 73.5263C49.7997 73.2667 49.4223 72.9599 48.9788 72.7267C47.0329 71.6996 45.8565 71.6261 44.3013 72.5395C43.8768 72.7888 43.3804 72.9565 42.5418 73.3264C42.7004 72.5142 42.743 71.9846 42.9178 71.4825C43.0779 71.0299 43.4069 70.6163 43.6213 70.174C44.2792 68.816 44.078 68.2485 42.4934 67.4604C41.8428 67.1387 41.596 66.7687 41.6122 66.1978C41.6386 65.3361 41.6225 64.4722 41.6152 63.6082C41.6093 62.3353 40.9601 61.3829 39.4431 60.8096C38.4239 60.4236 38.3357 60.1456 38.5854 59.2609C38.7425 58.721 38.8747 58.1649 38.954 57.6135C39.233 55.7512 38.0435 54.4553 36.2944 53.3512C35.9948 53.1628 35.6893 52.8055 35.6996 52.5309C35.7392 51.212 35.1782 49.8931 35.8391 48.5685C36.2562 47.7275 35.5762 47.0532 34.8463 46.5097C33.7023 45.6665 33.5671 44.644 33.8506 43.5376C34.0841 42.6071 34.6304 42.3256 35.823 42.4554C36.149 42.4945 36.4912 42.4991 36.8025 42.5715C39.5121 43.2125 41.6445 42.4072 43.5317 40.9562C43.8445 40.7149 44.1734 40.4794 44.4789 40.2335C45.5158 39.396 46.7935 39.0996 48.2415 39.2179C49.1756 39.2926 50.0949 39.4672 51.026 39.5063C52.2288 39.558 53.4331 39.5224 54.7739 39.5224C57.4042 43.2596 58.5321 43.7065 62.581 42.5542C63.5547 43.3228 64.6488 44.0202 63.9351 45.377C63.6091 46.0019 63.9057 46.6683 64.4741 47.191C65.2569 47.9137 66.0381 48.6386 66.8958 49.3049C67.4774 49.7599 68.1882 50.1149 68.855 50.5239C68.4276 51.0765 68.2234 51.3694 67.984 51.6405C67.0074 52.7435 66.8136 53.5155 67.8754 54.4668C69.3425 55.7753 68.573 57.1539 68.4878 58.5303L68.2807 58.8692C67.235 59.7906 66.1689 60.7028 65.1276 61.6264C64.0952 62.5398 63.7868 63.6806 63.5503 64.8306C63.4123 65.5096 63.3638 66.2024 63.2243 66.8836C63.0392 67.7614 62.5634 68.5334 61.5633 69.0217Z"/>
</mask>
<path d="M111.721 123.869C111.399 122.272 110.564 120.832 109.104 119.632C107.349 118.18 106.277 116.501 106.112 114.459C105.923 112.113 104.203 110.567 101.482 109.744C100.587 109.472 99.9513 109.103 99.5254 108.467C99.0158 107.705 98.4342 106.964 98.0098 106.175C97.4708 105.175 96.5295 104.502 95.265 104.281C93.789 104.022 93.137 103.32 92.8124 102.289C92.6905 101.911 92.5275 101.541 92.4541 101.158C91.9577 98.6864 90.2306 96.8746 87.5225 95.6258C86.6575 95.2248 86.2271 94.6665 85.8189 93.9738C84.9906 92.5721 84.2342 91.0775 83.0109 89.9056C81.2691 88.2363 79.075 86.9508 75.9792 87.9078L75.5885 87.8228C75.214 87.2093 74.8748 86.5245 74.4019 85.9019C73.2446 84.3923 72.4883 84.2578 70.5482 85.1333L70.2824 85.1459C70.1135 84.8736 69.9344 84.5726 69.742 84.2716C69.0782 83.233 68.4834 82.16 67.7271 81.1628C67.05 80.2667 66.2305 79.4545 64.6297 79.513C64.2229 79.528 63.7985 79.2304 63.0774 78.9662C63.8837 78.5285 64.3008 78.2378 64.781 78.0528C66.2775 77.4681 67.4084 76.6202 67.9723 75.3863C68.2293 74.8303 68.7066 74.5224 69.3469 74.3673C70.1326 74.18 70.9404 74.0123 71.7569 73.956C73.9525 73.8009 75.4094 72.7784 76.4771 71.4308C77.5785 70.0418 78.3906 68.5196 78.7328 66.8779C78.9076 66.03 79.097 65.258 80.2146 64.7422C80.7433 64.4986 81.0723 63.8518 81.2662 63.3383C81.5041 62.6845 81.6054 61.978 81.5951 61.299C81.579 60.118 81.9564 59.1311 83.0417 58.2522C85.0273 56.6542 85.5897 54.6793 85.1257 52.5114C84.7512 50.7605 84.5133 49.0453 85.346 47.2933C86.3358 45.2196 85.7043 43.3768 83.4397 41.9798C82.7465 41.5536 82.4895 41.0825 82.6085 40.4265C82.6804 40.0428 82.7304 39.6545 82.7524 39.2662C82.8317 37.937 82.9301 36.6077 82.9404 35.275C82.9404 34.9097 82.7759 34.4777 82.4954 34.1859C80.5275 32.1421 78.9443 31.5171 76.1672 32.2754C75.5944 32.4316 75.0202 32.6051 74.4283 32.6763C73.4722 32.7993 73.133 32.558 73.0302 31.8043C72.9582 31.2483 72.948 30.6831 72.804 30.1373C72.5147 28.9931 71.6703 28.437 70.1679 28.3761C69.6215 28.352 69.0606 28.3727 68.5245 28.4554C66.865 28.7105 65.4375 28.4945 64.0893 27.5984C63.1421 26.963 61.973 26.5207 60.851 26.0635C58.9007 25.2662 56.8931 24.5562 54.956 23.7416C53.7605 23.2327 52.5196 22.965 51.1743 22.9259C50.5164 22.9053 49.8394 22.9776 49.1947 22.8869C47.0578 22.5859 45.3322 23.1959 43.6947 24.1966C41.8707 25.3098 40.0129 26.3944 38.1052 27.4214C35.5997 28.7714 32.8887 29.448 29.834 28.684L29.1892 28.5818C27.9468 28.275 26.8247 28.5278 25.6851 28.9437C23.8479 29.6169 22.3191 30.5785 21.0135 31.7699C20.2468 32.4718 19.4685 32.7395 18.2848 32.3156C17.2332 31.9422 16.6253 32.0973 16.1245 32.743C14.929 34.2893 14.1551 36.8421 16.637 38.6837C17.038 38.9801 17.4389 39.2754 17.8633 39.55C19.583 40.6632 19.8151 42.0625 19.1807 43.6433C18.9046 44.3407 18.5991 45.0404 18.4346 45.7549C17.7664 48.6983 18.0601 51.4361 21.269 53.5373C21.9387 53.9739 22.5115 54.523 23.0475 55.0676C24.0065 56.043 24.7305 57.0793 24.2943 58.4039C23.9654 59.4011 23.8244 60.4351 23.5013 61.43C23.2281 62.2709 23.2281 63.0292 23.8626 63.7806C24.0902 64.0471 24.2503 64.4308 24.2106 64.7399C24.1064 65.5475 24.3267 66.2747 24.7702 66.9893C25.2475 67.7533 25.2857 68.5116 24.9772 69.3606C24.4706 70.7449 24.6659 72.0914 25.9113 73.2564C26.4429 73.7527 26.9247 74.2777 27.4563 74.774C28.2493 75.5093 28.64 76.2882 28.2684 77.2774C27.8469 78.3929 28.0687 79.4579 28.7119 80.5298C30.0807 82.8103 30.9677 85.2286 30.9809 87.7561C30.9839 89.1887 31.1586 90.6891 30.0616 92.0184C29.1349 93.1374 29.6636 94.2656 30.6108 95.1192C31.9267 96.3071 32.5406 97.7041 33.1985 99.1229C33.5069 99.7939 33.435 100.366 32.9518 100.96C31.5023 102.748 31.423 104.666 32.0119 106.681C32.4261 108.098 33.2411 109.359 34.2266 110.552C34.93 111.403 35.4587 112.283 35.657 113.275C35.8215 114.118 36.2489 114.826 37.1036 115.386C37.3738 115.563 37.6352 115.863 37.6646 116.127C37.8423 117.531 38.2697 118.915 37.7527 120.355C37.2269 121.818 37.6617 122.595 39.3682 123.39C40.5122 123.922 40.9322 124.678 40.9983 125.625C41.0483 126.356 40.9851 127.093 41.0321 127.824C41.1232 129.114 41.6269 130.28 42.9413 131.144C43.5361 131.536 44.1779 131.936 45.0194 131.657C45.8771 131.381 46.2266 130.779 46.2427 130.095C46.2662 129.281 46.2163 128.457 46.1473 127.641C46.0283 126.22 46.0944 124.87 47.9625 124.067L48.2063 123.895C50.1654 122.376 50.3695 120.78 49.0081 118.893C48.0095 117.504 47.5527 116.03 48.4457 114.449C48.7981 113.826 49.0904 113.139 49.1521 112.466C49.2079 111.806 49.1315 111.058 48.7673 110.482C48.0609 109.371 47.1298 108.343 46.253 107.298C44.8755 105.662 44.0971 103.994 45.5789 102.132L45.783 101.779C47.19 99.7709 47.3148 97.7638 45.7243 95.7763C45.2382 95.1686 45.1751 94.5861 45.7214 93.9738C46.7362 92.8479 46.5365 91.7208 45.7434 90.5685C45.2735 89.8895 44.8652 89.175 44.5362 88.4489C43.9047 87.0599 44.4775 86.2166 46.5908 85.6296C47.4294 86.3453 48.334 87.1553 49.2857 87.9296C50.7029 89.0762 52.4652 89.5185 54.4111 89.0842C55.8783 88.7579 56.7448 89.2336 57.4585 90.0768C58.2178 90.9764 58.8625 91.9334 59.6409 92.818C60.2621 93.5199 60.9391 94.2127 61.7292 94.7986C62.5546 95.419 63.1979 95.3374 64.0232 94.7148C65.555 93.5475 65.8839 93.5268 67.3467 94.7171C68.1485 95.3777 69.0136 95.8487 70.2222 95.7361C71.1269 95.6488 71.7011 95.9452 72.0594 96.5644C72.8246 97.8959 73.647 99.2114 74.3505 100.561C75.2317 102.258 76.6885 102.794 78.7886 102.1C79.0911 102 79.3878 101.883 79.6962 101.786C80.8829 101.411 81.0048 101.392 81.6847 102.291C82.5233 103.4 83.2884 104.548 83.9919 105.714C84.9362 107.271 86.4871 108.292 88.5828 108.579C89.8575 108.756 90.5287 109.225 91.0413 110.035C91.3085 110.46 91.6302 110.867 91.896 111.291C93.1326 113.253 94.5321 115.084 97.4224 115.812L97.9746 116.09C99.3991 116.861 100.743 117.661 100.838 119.204C100.937 120.738 101.739 122.121 102.469 123.52C102.968 124.475 103.695 125.243 104.871 125.737C105.827 126.142 106.479 126.743 106.86 127.556C107.224 128.322 107.666 129.07 108.129 129.801C108.776 130.814 109.953 131.445 110.778 131.274C111.637 131.097 112.089 130.358 112.047 129.091C112.031 128.536 111.665 127.918 111.872 127.438C112.415 126.207 111.959 125.042 111.721 123.869ZM61.5633 69.0217C61.2211 69.1917 60.7879 69.2618 60.3825 69.3307C59.4852 69.495 58.5482 69.5651 57.6773 69.7914C56.6919 70.0487 55.7153 70.3727 54.8077 70.7737C54.1101 71.085 53.436 71.4986 52.9337 71.98C52.2097 72.6762 51.3579 73.1598 50.1948 73.5263C49.7997 73.2667 49.4223 72.9599 48.9788 72.7267C47.0329 71.6996 45.8565 71.6261 44.3013 72.5395C43.8768 72.7888 43.3804 72.9565 42.5418 73.3264C42.7004 72.5142 42.743 71.9846 42.9178 71.4825C43.0779 71.0299 43.4069 70.6163 43.6213 70.174C44.2792 68.816 44.078 68.2485 42.4934 67.4604C41.8428 67.1387 41.596 66.7687 41.6122 66.1978C41.6386 65.3361 41.6225 64.4722 41.6152 63.6082C41.6093 62.3353 40.9601 61.3829 39.4431 60.8096C38.4239 60.4236 38.3357 60.1456 38.5854 59.2609C38.7425 58.721 38.8747 58.1649 38.954 57.6135C39.233 55.7512 38.0435 54.4553 36.2944 53.3512C35.9948 53.1628 35.6893 52.8055 35.6996 52.5309C35.7392 51.212 35.1782 49.8931 35.8391 48.5685C36.2562 47.7275 35.5762 47.0532 34.8463 46.5097C33.7023 45.6665 33.5671 44.644 33.8506 43.5376C34.0841 42.6071 34.6304 42.3256 35.823 42.4554C36.149 42.4945 36.4912 42.4991 36.8025 42.5715C39.5121 43.2125 41.6445 42.4072 43.5317 40.9562C43.8445 40.7149 44.1734 40.4794 44.4789 40.2335C45.5158 39.396 46.7935 39.0996 48.2415 39.2179C49.1756 39.2926 50.0949 39.4672 51.026 39.5063C52.2288 39.558 53.4331 39.5224 54.7739 39.5224C57.4042 43.2596 58.5321 43.7065 62.581 42.5542C63.5547 43.3228 64.6488 44.0202 63.9351 45.377C63.6091 46.0019 63.9057 46.6683 64.4741 47.191C65.2569 47.9137 66.0381 48.6386 66.8958 49.3049C67.4774 49.7599 68.1882 50.1149 68.855 50.5239C68.4276 51.0765 68.2234 51.3694 67.984 51.6405C67.0074 52.7435 66.8136 53.5155 67.8754 54.4668C69.3425 55.7753 68.573 57.1539 68.4878 58.5303L68.2807 58.8692C67.235 59.7906 66.1689 60.7028 65.1276 61.6264C64.0952 62.5398 63.7868 63.6806 63.5503 64.8306C63.4123 65.5096 63.3638 66.2024 63.2243 66.8836C63.0392 67.7614 62.5634 68.5334 61.5633 69.0217Z" fill="#11B0C8" stroke="#87F54E" stroke-width="2" mask="url(#path-2-inside-2_0_291)"/>
<path d="M500.236 71.7C500.261 72.3779 500.665 73.0599 501.094 73.5279L501.096 73.5302C501.701 74.1804 502.041 74.6598 502.02 75.2826H502.02L502.02 75.2883C502.013 75.6049 502.151 75.8842 502.275 76.0841C502.388 76.2681 502.531 76.4468 502.644 76.5879C502.657 76.604 502.669 76.6197 502.681 76.6348C502.949 76.976 503.235 77.306 503.512 77.6256L503.535 77.6516C503.808 77.9655 504.072 78.2695 504.318 78.5798L504.319 78.581C504.637 78.9786 504.822 79.3584 504.887 79.7255C504.951 80.0856 504.905 80.4676 504.702 80.889L504.701 80.8922C504.492 81.3363 504.434 81.8047 504.479 82.3315L504.577 83.4806L505.349 82.6231C506.07 81.8211 506.992 81.3264 508.052 80.9593C508.837 80.6874 509.663 80.4954 510.526 80.2949C510.845 80.2206 511.17 80.1452 511.5 80.0641L511.5 80.064C513.422 79.5899 515.295 78.9697 517.147 78.3567C517.935 78.0959 518.718 77.8364 519.5 77.59L519.515 77.5853L519.53 77.5797L519.825 77.4659L519.879 77.4452L519.927 77.4128C521.22 76.5333 522.715 75.8856 524.265 75.2144C524.431 75.1425 524.598 75.0704 524.765 74.9977C526.469 74.2556 528.212 73.4551 529.652 72.2659C530.461 71.5987 531.621 71.1152 532.803 70.6535L532.804 70.6531C534.165 70.1177 535.568 69.651 536.986 69.1797C537.438 69.0292 537.892 68.8783 538.347 68.7245C539.033 68.4926 539.636 68.3975 540.244 68.6286L540.245 68.629L494.178 51.9221L493.679 51.9491C493.679 51.9505 493.679 51.9519 493.679 51.9533C493.762 53.4548 494.341 54.8127 494.981 56.0825C495.154 56.426 495.331 56.7607 495.504 57.0906C495.988 58.0098 496.452 58.8918 496.777 59.8204L496.778 59.8224C496.886 60.1268 497.121 60.3769 497.341 60.5601C497.571 60.7519 497.839 60.9157 498.09 61.0349L498.091 61.035C498.788 61.3661 499.276 61.7579 499.592 62.1923C499.905 62.6222 500.069 63.1183 500.083 63.695L500.083 63.6953C500.11 64.7743 500.123 65.8645 500.137 66.9587C500.156 68.5384 500.176 70.1262 500.236 71.7ZM500.236 71.7L500.736 71.6813L500.236 71.7003C500.236 71.7002 500.236 71.7001 500.236 71.7ZM470.332 108.135C471.473 109.474 471.447 109.922 469.937 110.988L470.227 111.396C470.227 111.396 470.226 111.396 470.226 111.396C468.385 112.703 466.499 113.969 464.613 115.221L464.336 114.805L464.613 115.221C463.777 115.776 463.151 116.322 462.816 117.041C462.722 117.247 462.57 117.454 462.393 117.625C462.218 117.794 461.984 117.959 461.712 118.036C459.852 118.564 458.688 119.636 457.763 120.965C456.847 122.283 455.616 123.362 453.902 124.057L453.9 124.057C453.488 124.224 453.06 124.365 452.65 124.501C452.607 124.515 452.564 124.529 452.521 124.543C452.066 124.694 451.633 124.842 451.228 125.019L451.228 125.019C447.453 126.671 444.346 129.002 441.206 131.361L441.206 131.361C440.63 131.793 440.269 132.433 439.869 133.141C439.839 133.194 439.809 133.248 439.778 133.301L439.777 133.303C439.57 133.664 439.47 133.955 439.482 134.188C439.491 134.377 439.579 134.612 439.979 134.872C440.642 135.299 441.461 135.342 442.557 134.842L443.197 134.49C443.912 134.021 444.625 133.547 445.339 133.072C446.844 132.072 448.355 131.068 449.894 130.096C449.894 130.096 449.894 130.096 449.894 130.096L450.161 130.519C451.004 129.986 451.95 129.467 452.959 129.205L452.832 128.721C452.833 128.721 452.833 128.721 452.833 128.721C454.827 128.2 456.887 127.829 458.925 127.473C461.074 127.09 462.901 126.41 464.409 125.171C465.972 123.882 467.609 122.641 469.236 121.408C469.826 120.96 470.416 120.513 471 120.065L471.002 120.064C471.357 119.794 471.771 119.496 472.238 119.277C473.583 118.642 474.534 117.756 475.072 116.697C476.179 114.518 478.006 112.765 479.825 111.096C479.825 111.096 479.825 111.096 479.825 111.096L480.163 111.464C480.469 111.183 480.787 110.908 481.105 110.634C481.639 110.173 482.173 109.713 482.651 109.218L489.723 79.4851M470.332 108.135L470.713 107.811C470.713 107.811 470.713 107.811 470.713 107.81C470.245 107.259 470.116 106.911 470.135 106.638C470.155 106.358 470.34 105.997 470.921 105.453L470.921 105.453C472.667 103.815 474.63 102.4 477.054 101.418C477.458 101.257 477.85 101.079 478.23 100.895L478.334 100.845L478.405 100.754L478.594 100.513L478.852 100.185L478.576 99.8731L478.323 99.587L478.31 99.5721L478.296 99.5582C477.718 99.0008 477.641 98.685 477.671 98.5379C477.699 98.3922 477.893 98.1119 478.709 97.796C480.188 97.2251 481.731 96.7645 483.293 96.2981C483.735 96.1663 484.179 96.0339 484.623 95.8984M470.332 108.135C469.353 106.981 469.373 106.218 470.579 105.088C472.358 103.42 474.373 101.965 476.868 100.954C477.194 100.824 477.513 100.682 477.826 100.534M470.332 108.135L477.826 100.534M484.623 95.8984C484.622 95.8985 484.622 95.8986 484.622 95.8986L484.477 95.4202L484.623 95.8984ZM484.623 95.8984C484.987 95.7877 485.367 95.699 485.764 95.6095C485.81 95.599 485.857 95.5884 485.904 95.5779C486.253 95.4995 486.614 95.4182 486.969 95.3214M486.969 95.3214C486.969 95.3214 486.97 95.3213 486.97 95.3212L486.838 94.8389L486.968 95.3217C486.968 95.3216 486.969 95.3215 486.969 95.3214ZM486.969 95.3214C487.592 95.1535 488.163 94.941 488.512 94.5579C488.92 94.1096 488.934 93.5498 488.737 92.9628C488.418 91.9991 488.486 91.09 488.74 90.1623C488.926 89.4845 489.198 88.8323 489.486 88.1433C489.604 87.8612 489.724 87.5729 489.842 87.2741C489.842 87.2739 489.842 87.2737 489.842 87.2735L489.377 87.0898M489.377 87.0898C489.942 85.6652 490.434 84.2246 490.922 82.7959C491.137 82.1669 491.351 81.5401 491.57 80.9181C491.261 80.7724 490.984 80.648 490.731 80.5347C490.236 80.3122 489.834 80.1321 489.468 79.9152M489.377 87.0898C489.267 87.368 489.152 87.6445 489.037 87.9205C488.336 89.5993 487.645 91.2565 488.263 93.1213L489.377 87.0898ZM489.468 79.9152L489.724 79.4855C489.724 79.4854 489.724 79.4852 489.723 79.4851M489.468 79.9152L489.723 79.4851M489.468 79.9152C488.677 79.4441 488.302 78.8088 488.332 78.0023M489.723 79.4851C489.383 79.2823 489.159 79.0607 489.022 78.8295C488.887 78.6015 488.82 78.3378 488.831 78.0211M488.332 78.0023L488.831 78.0221C488.831 78.0218 488.831 78.0214 488.831 78.0211M488.332 78.0023C488.362 77.2475 488.316 76.4886 488.271 75.7332C488.267 75.6723 488.263 75.6115 488.26 75.5506L488.831 78.0211M488.332 78.0023L488.831 78.0205C488.831 78.0207 488.831 78.0209 488.831 78.0211M477.826 100.534L477.826 100.535L477.828 100.533" fill="#11B0C8" stroke="#87F54E"/>
<mask id="path-4-inside-3_0_291" fill="white">
<path d="M271.908 91.4348C270.991 89.7172 270.175 87.9962 270.323 86.0754C270.424 84.7507 270.28 83.4157 270.344 82.0888C270.393 81.0158 270.445 79.9255 270.75 78.8869C271.294 77.0465 272.006 75.2301 272.686 73.4138C273.006 72.5682 272.936 71.7651 272.232 71.0873C271.234 70.1177 271.125 69.032 271.464 67.9107C271.886 66.5321 272.451 65.1776 272.918 63.8059C273.085 63.3153 273.276 62.7983 273.244 62.2986C273.194 61.4484 272.764 60.6603 271.686 60.3133C270.536 59.9399 269.506 60.2869 268.716 60.9796C268.174 61.4553 267.609 61.978 267.315 62.5616C266.795 63.5956 266.425 64.6836 266.083 65.7658C265.416 67.8877 264.81 70.0246 264.177 72.1523L263.957 72.6383C262.661 74.2019 262.212 75.9608 261.908 77.7691C261.754 78.7066 261.119 79.3258 259.991 79.8474C258.361 80.6056 256.843 81.5695 255.484 82.6115C254.196 83.5961 253.164 84.7875 252.026 85.8904C252.058 85.1379 252.006 84.3739 252.174 83.6432C252.758 81.1077 253.437 78.5825 254.064 76.047C254.375 74.7821 254.715 73.5103 254.919 72.2327C255.02 71.5664 255.008 70.8369 254.765 70.2016C254.462 69.4169 253.85 68.6897 252.617 68.6299C251.444 68.5679 250.642 69.0688 250.077 69.8282C249.886 70.0878 249.718 70.3635 249.573 70.6416C248.126 73.4471 246.69 76.256 245.151 79.2523C244.638 77.421 243.681 76.0906 241.055 76.5616C240.134 75.3657 239.908 74.1238 239.595 72.9071C239.346 71.9421 238.757 71.1402 237.899 70.4382C237.235 69.8948 236.394 69.8948 235.598 70.1246C234.786 70.3612 234.241 70.8173 234.241 71.5882C234.241 72.2293 234.113 72.8681 234.054 73.5114C233.954 74.5787 233.791 75.6483 233.784 76.7156C233.78 77.8334 233.866 78.9559 234.031 80.0668C234.276 81.7281 232.979 82.8183 231.866 84.1418C231.317 83.2664 230.769 82.5621 230.419 81.7981C230.183 81.2869 230.289 80.6883 230.137 80.1461C229.897 79.3074 229.535 78.4917 229.293 77.6531C229.017 76.6938 228.794 75.7241 228.584 74.7602C228.482 74.2926 228.512 73.8124 228.402 73.3483C227.876 71.1115 227.058 68.9148 227.047 66.6079C227.043 65.8876 226.912 65.1454 226.676 64.4481C226.406 63.6634 225.66 63.2487 224.897 63.3854C223.922 63.5623 222.941 63.8196 222.415 64.5526C221.882 65.2982 221.386 66.0726 221.011 66.8745C220.616 67.7212 220.383 68.6127 220.088 69.487C219.884 70.0993 219.446 70.4773 218.578 70.444C216.99 70.3877 216.191 71.1654 215.626 72.1661C215.228 72.8761 214.946 73.6263 214.485 74.311C213.272 76.1297 212.966 77.9782 213.968 79.9152C214.31 80.5758 214.389 81.2501 214.069 81.9291C212.974 84.2659 212.449 86.7716 210.674 88.9142C210.323 89.3381 210.013 89.8517 209.96 90.3468C209.868 91.182 209.618 92.2183 210.108 92.8456C210.994 93.96 211.161 95.0663 211.119 96.2795C211.106 96.5346 211.151 96.8011 211.228 97.0481C211.483 97.8397 212.279 98.4061 213.15 98.4428C214.11 98.4784 214.702 98.0924 215.061 97.1205C215.326 96.4105 215.645 95.7556 216.353 95.2157C217.175 94.5827 217.349 93.7497 216.945 92.934C216.619 92.2666 216.866 91.7691 217.336 91.2602C217.691 90.8776 218.115 90.5191 218.394 90.109C218.665 89.7046 218.95 89.2439 218.947 88.8096C218.93 87.3586 219.926 86.3258 220.998 85.2011C221.373 85.4239 221.596 85.6388 221.882 85.7181C223.194 86.0708 223.659 86.9209 224.025 87.84C224.541 89.1554 224.94 90.5065 225.583 91.7817C226.464 93.5383 227.523 95.2398 228.522 96.9619L228.929 97.3664C229.475 97.819 230.115 97.9419 230.882 97.7386C231.891 97.4778 232.496 96.9413 232.503 96.129C232.509 94.4115 232.434 92.6905 232.376 90.9706C232.342 90.0091 232.26 89.044 232.195 87.933C233.355 88.4167 233.812 88.967 233.713 89.7954C233.666 90.1779 233.753 90.5766 233.678 90.9546C233.379 92.4412 234.615 93.2569 235.858 94.0611C236.335 94.3678 236.927 94.3724 237.381 94.0427C238.557 93.1845 239.711 92.3045 239.485 90.8569C239.422 90.4824 239.409 90.0722 239.528 89.7103C239.984 88.3191 239.817 86.9818 239.124 85.6698C238.893 85.2367 238.792 84.8242 239.137 84.2969C239.937 84.8679 240.773 85.2712 241.264 85.8548C242.418 87.2127 243.436 88.643 244.443 90.0722C245.239 91.2004 245.913 92.3791 246.684 93.5177C247.088 94.1128 247.687 94.5827 248.64 94.5126C249.607 94.4413 250.254 94.0347 250.525 93.2684C250.692 92.7881 250.939 92.3251 251.183 91.7817L251.397 91.9667L251.463 92.347C251.597 94.107 252.817 95.1904 254.878 95.7844C255.597 95.99 256.301 96.2359 256.965 96.5265C259.661 97.7064 262.714 97.2675 264.638 95.3972C264.941 95.1042 265.227 94.8021 265.653 94.3678C265.835 95.0204 265.979 95.5167 266.101 96.0141C266.415 97.24 267.182 98.2716 268.326 99.1229C269.404 99.9249 270.874 99.9846 272.11 99.3286C273.197 98.7496 273.773 98.0051 273.658 96.9321C273.45 95.0169 272.845 93.196 271.908 91.4348ZM219.374 79.9186C220.33 77.9265 221.232 76.0596 222.129 74.1892L222.556 74.2743C222.556 75.2565 222.376 76.2641 222.606 77.2142C222.824 78.0885 223.485 78.8996 224.047 79.9198H219.374V79.9186ZM262.379 89.6655C261.824 90.0251 261.407 90.5168 260.88 90.9132C259.98 91.5979 258.852 91.4761 258.674 90.5731C258.507 89.7379 258.796 88.8349 258.974 87.9721C259.148 87.1289 259.595 86.5246 260.786 86.1523C261.848 85.8123 262.685 85.0437 263.911 84.2923C264.189 86.3718 264.622 88.2065 262.379 89.6655Z"/>
</mask>
<path d="M271.908 91.4348C270.991 89.7172 270.175 87.9962 270.323 86.0754C270.424 84.7507 270.28 83.4157 270.344 82.0888C270.393 81.0158 270.445 79.9255 270.75 78.8869C271.294 77.0465 272.006 75.2301 272.686 73.4138C273.006 72.5682 272.936 71.7651 272.232 71.0873C271.234 70.1177 271.125 69.032 271.464 67.9107C271.886 66.5321 272.451 65.1776 272.918 63.8059C273.085 63.3153 273.276 62.7983 273.244 62.2986C273.194 61.4484 272.764 60.6603 271.686 60.3133C270.536 59.9399 269.506 60.2869 268.716 60.9796C268.174 61.4553 267.609 61.978 267.315 62.5616C266.795 63.5956 266.425 64.6836 266.083 65.7658C265.416 67.8877 264.81 70.0246 264.177 72.1523L263.957 72.6383C262.661 74.2019 262.212 75.9608 261.908 77.7691C261.754 78.7066 261.119 79.3258 259.991 79.8474C258.361 80.6056 256.843 81.5695 255.484 82.6115C254.196 83.5961 253.164 84.7875 252.026 85.8904C252.058 85.1379 252.006 84.3739 252.174 83.6432C252.758 81.1077 253.437 78.5825 254.064 76.047C254.375 74.7821 254.715 73.5103 254.919 72.2327C255.02 71.5664 255.008 70.8369 254.765 70.2016C254.462 69.4169 253.85 68.6897 252.617 68.6299C251.444 68.5679 250.642 69.0688 250.077 69.8282C249.886 70.0878 249.718 70.3635 249.573 70.6416C248.126 73.4471 246.69 76.256 245.151 79.2523C244.638 77.421 243.681 76.0906 241.055 76.5616C240.134 75.3657 239.908 74.1238 239.595 72.9071C239.346 71.9421 238.757 71.1402 237.899 70.4382C237.235 69.8948 236.394 69.8948 235.598 70.1246C234.786 70.3612 234.241 70.8173 234.241 71.5882C234.241 72.2293 234.113 72.8681 234.054 73.5114C233.954 74.5787 233.791 75.6483 233.784 76.7156C233.78 77.8334 233.866 78.9559 234.031 80.0668C234.276 81.7281 232.979 82.8183 231.866 84.1418C231.317 83.2664 230.769 82.5621 230.419 81.7981C230.183 81.2869 230.289 80.6883 230.137 80.1461C229.897 79.3074 229.535 78.4917 229.293 77.6531C229.017 76.6938 228.794 75.7241 228.584 74.7602C228.482 74.2926 228.512 73.8124 228.402 73.3483C227.876 71.1115 227.058 68.9148 227.047 66.6079C227.043 65.8876 226.912 65.1454 226.676 64.4481C226.406 63.6634 225.66 63.2487 224.897 63.3854C223.922 63.5623 222.941 63.8196 222.415 64.5526C221.882 65.2982 221.386 66.0726 221.011 66.8745C220.616 67.7212 220.383 68.6127 220.088 69.487C219.884 70.0993 219.446 70.4773 218.578 70.444C216.99 70.3877 216.191 71.1654 215.626 72.1661C215.228 72.8761 214.946 73.6263 214.485 74.311C213.272 76.1297 212.966 77.9782 213.968 79.9152C214.31 80.5758 214.389 81.2501 214.069 81.9291C212.974 84.2659 212.449 86.7716 210.674 88.9142C210.323 89.3381 210.013 89.8517 209.96 90.3468C209.868 91.182 209.618 92.2183 210.108 92.8456C210.994 93.96 211.161 95.0663 211.119 96.2795C211.106 96.5346 211.151 96.8011 211.228 97.0481C211.483 97.8397 212.279 98.4061 213.15 98.4428C214.11 98.4784 214.702 98.0924 215.061 97.1205C215.326 96.4105 215.645 95.7556 216.353 95.2157C217.175 94.5827 217.349 93.7497 216.945 92.934C216.619 92.2666 216.866 91.7691 217.336 91.2602C217.691 90.8776 218.115 90.5191 218.394 90.109C218.665 89.7046 218.95 89.2439 218.947 88.8096C218.93 87.3586 219.926 86.3258 220.998 85.2011C221.373 85.4239 221.596 85.6388 221.882 85.7181C223.194 86.0708 223.659 86.9209 224.025 87.84C224.541 89.1554 224.94 90.5065 225.583 91.7817C226.464 93.5383 227.523 95.2398 228.522 96.9619L228.929 97.3664C229.475 97.819 230.115 97.9419 230.882 97.7386C231.891 97.4778 232.496 96.9413 232.503 96.129C232.509 94.4115 232.434 92.6905 232.376 90.9706C232.342 90.0091 232.26 89.044 232.195 87.933C233.355 88.4167 233.812 88.967 233.713 89.7954C233.666 90.1779 233.753 90.5766 233.678 90.9546C233.379 92.4412 234.615 93.2569 235.858 94.0611C236.335 94.3678 236.927 94.3724 237.381 94.0427C238.557 93.1845 239.711 92.3045 239.485 90.8569C239.422 90.4824 239.409 90.0722 239.528 89.7103C239.984 88.3191 239.817 86.9818 239.124 85.6698C238.893 85.2367 238.792 84.8242 239.137 84.2969C239.937 84.8679 240.773 85.2712 241.264 85.8548C242.418 87.2127 243.436 88.643 244.443 90.0722C245.239 91.2004 245.913 92.3791 246.684 93.5177C247.088 94.1128 247.687 94.5827 248.64 94.5126C249.607 94.4413 250.254 94.0347 250.525 93.2684C250.692 92.7881 250.939 92.3251 251.183 91.7817L251.397 91.9667L251.463 92.347C251.597 94.107 252.817 95.1904 254.878 95.7844C255.597 95.99 256.301 96.2359 256.965 96.5265C259.661 97.7064 262.714 97.2675 264.638 95.3972C264.941 95.1042 265.227 94.8021 265.653 94.3678C265.835 95.0204 265.979 95.5167 266.101 96.0141C266.415 97.24 267.182 98.2716 268.326 99.1229C269.404 99.9249 270.874 99.9846 272.11 99.3286C273.197 98.7496 273.773 98.0051 273.658 96.9321C273.45 95.0169 272.845 93.196 271.908 91.4348ZM219.374 79.9186C220.33 77.9265 221.232 76.0596 222.129 74.1892L222.556 74.2743C222.556 75.2565 222.376 76.2641 222.606 77.2142C222.824 78.0885 223.485 78.8996 224.047 79.9198H219.374V79.9186ZM262.379 89.6655C261.824 90.0251 261.407 90.5168 260.88 90.9132C259.98 91.5979 258.852 91.4761 258.674 90.5731C258.507 89.7379 258.796 88.8349 258.974 87.9721C259.148 87.1289 259.595 86.5246 260.786 86.1523C261.848 85.8123 262.685 85.0437 263.911 84.2923C264.189 86.3718 264.622 88.2065 262.379 89.6655Z" fill="#11B0C8" stroke="#87F54E" stroke-width="2" mask="url(#path-4-inside-3_0_291)"/>
<path d="M194.159 52.1407L194.157 52.141C193.87 52.1784 193.586 52.2109 193.308 52.2429C192.393 52.3477 191.528 52.447 190.731 52.6977L190.73 52.698C189.442 53.1004 188.178 53.6334 187.103 54.2863L187.103 54.2864C184.038 56.1479 181.039 58.0792 178.033 60.0142C177.766 60.1861 177.499 60.3581 177.232 60.53C177.125 60.5995 177.014 60.676 176.899 60.7554C176.23 61.2164 175.413 61.7795 174.233 61.6908M194.159 52.1407L174.269 61.1922M194.159 52.1407C194.661 52.0732 194.983 52.2306 195.182 52.5229C195.233 52.5977 195.247 52.6494 195.251 52.68C195.255 52.7094 195.252 52.7399 195.238 52.7781C195.204 52.8677 195.11 52.9918 194.923 53.1373L194.922 53.1378C194.793 53.2388 194.664 53.3397 194.536 53.4406C193.224 54.4685 191.928 55.484 190.533 56.4059L190.532 56.4063C190.508 56.4223 190.484 56.4384 190.459 56.4545C189.772 56.9094 189.022 57.4058 188.553 58.1789L188.552 58.1795C187.543 59.847 185.986 61.1157 183.784 61.913C183.571 61.9888 183.365 62.0804 183.179 62.163C183.15 62.1758 183.121 62.1884 183.094 62.2008C182.878 62.296 182.684 62.3775 182.487 62.436C180.006 63.168 178.751 64.7706 178.176 66.6365L178.176 66.6372C177.333 69.3893 175.08 71.0895 171.652 72.1168L171.652 72.1169C170.991 72.3153 170.348 72.5003 169.702 72.6863C169.123 72.8529 168.542 73.0203 167.942 73.1988L167.941 73.1991C166.852 73.5262 166.046 74.1588 165.708 74.9892C165.362 75.8399 165.556 76.7792 166.233 77.5804L166.233 77.5815M194.159 52.1407L166.233 77.5815M174.233 61.6908C174.232 61.6908 174.232 61.6908 174.231 61.6908L174.269 61.1922M174.233 61.6908C174.233 61.6909 174.233 61.6909 174.233 61.6909L174.269 61.1922M174.233 61.6908C173.356 61.6273 172.643 61.8912 171.954 62.3234L171.953 62.3241C171.444 62.6419 170.921 62.9815 170.394 63.3244C169.721 63.7624 169.039 64.2057 168.365 64.6156L168.364 64.6161C167.789 64.9642 167.152 65.3033 166.457 65.5413M174.269 61.1922C173.256 61.1186 172.438 61.43 171.689 61.8999C171.156 62.232 170.631 62.5735 170.106 62.9152C169.445 63.3455 168.783 63.776 168.105 64.1884C167.546 64.5273 166.942 64.8467 166.294 65.0684M166.457 65.5413C166.457 65.5412 166.457 65.5411 166.458 65.5411L166.294 65.0684M166.457 65.5413C165.666 65.8144 164.842 66.0454 164.031 66.2731C163.71 66.363 163.392 66.4523 163.078 66.5435L162.74 66.6416L162.534 66.357C162.109 65.7714 161.858 65.1421 161.836 64.4757C161.814 63.8081 162.025 63.1514 162.441 62.5152L162.442 62.5132C162.729 62.0807 162.947 61.6449 163.034 61.2304L163.034 61.2303C163.054 61.1354 163.074 61.0418 163.094 60.9493C163.396 59.54 163.64 58.3991 162.758 57.2444M166.457 65.5413C166.457 65.5413 166.457 65.5414 166.456 65.5415L166.294 65.0684M166.294 65.0684C165.518 65.3365 164.716 65.5614 163.91 65.7875C163.587 65.8783 163.262 65.9693 162.939 66.0633C162.179 65.0167 162.116 63.9242 162.859 62.7891C163.162 62.3319 163.417 61.8355 163.523 61.3335C163.545 61.2294 163.568 61.1254 163.59 61.0213C163.887 59.65 164.182 58.2847 163.155 56.9403M162.648 50.3136C162.687 50.2217 162.727 50.1299 162.768 50.0381C162.888 49.7628 163.009 49.4876 163.105 49.2084C163.674 47.5644 163.858 45.8986 163.423 44.2189C162.947 42.3566 160.899 41.7753 158.953 42.9299C158.808 43.0154 158.663 43.1005 158.52 43.1843C158.318 43.3031 158.121 43.4191 157.934 43.5296C155.98 43.1436 155.606 43.185 154.748 44.1822C154.363 44.6302 154.08 45.1909 153.999 45.7228M162.648 50.3136L162.189 50.114C162.189 50.1145 162.189 50.1151 162.189 50.1156M162.648 50.3136L162.188 50.1171C162.188 50.1166 162.189 50.1161 162.189 50.1156M162.648 50.3136C162.237 51.258 162.008 52.1403 162.632 53.1502M162.189 50.1156C162.232 50.0143 162.275 49.917 162.316 49.8223C162.434 49.5526 162.543 49.3041 162.632 49.0461L162.632 49.0447C163.178 47.4693 163.344 45.9061 162.939 44.3442L162.939 44.3427C162.745 43.5831 162.245 43.1084 161.601 42.9237C160.944 42.7349 160.087 42.8386 159.208 43.3599L159.207 43.3607C159.06 43.447 158.915 43.5323 158.772 43.6161C158.571 43.7344 158.375 43.8497 158.188 43.96L158.024 44.0571L157.837 44.0201C156.834 43.822 156.356 43.7636 156.026 43.8279C155.756 43.8806 155.542 44.0256 155.128 44.5079M162.189 50.1156C161.977 50.6016 161.789 51.122 161.753 51.6744C161.715 52.2436 161.84 52.8197 162.206 53.4122M155.128 44.5079L154.748 44.1822L155.127 44.5082C155.127 44.5081 155.127 44.508 155.128 44.5079ZM155.128 44.5079C154.792 44.8988 154.558 45.3744 154.494 45.7957M154.494 45.7957C154.494 45.7949 154.494 45.7941 154.494 45.7933L153.999 45.7228M154.494 45.7957C154.447 46.125 154.454 46.4703 154.475 46.8532C154.479 46.9269 154.483 47.0027 154.488 47.0802C154.507 47.391 154.527 47.728 154.518 48.0594C154.502 48.759 154.513 49.4405 154.524 50.1331C154.532 50.6378 154.54 51.1484 154.538 51.6762C154.533 52.8972 154.47 54.1386 154.201 55.3622L154.201 55.3624C153.527 58.4225 152.634 61.5063 151.162 64.4662M154.494 45.7957C154.494 45.7964 154.494 45.7971 154.494 45.7978L153.999 45.7228M153.999 45.7228C153.934 46.1828 153.962 46.6512 153.99 47.1206C154.008 47.4296 154.026 47.7391 154.018 48.0469C154.002 48.7487 154.013 49.4548 154.024 50.161C154.051 51.8767 154.078 53.5938 153.713 55.2549L151.162 64.4662M171.796 72.5958C171.144 72.7915 170.489 72.9801 169.834 73.1688C169.25 73.3368 168.666 73.5048 168.085 73.678C166.099 74.2743 165.457 75.8873 166.615 77.2578L171.796 72.5958ZM171.796 72.5958C175.307 71.5434 177.742 69.7592 178.654 66.7837L171.796 72.5958ZM159.78 87.9859C159.736 88.1492 159.693 88.3107 159.65 88.4707C159.636 88.4657 159.622 88.4606 159.608 88.4554L159.78 87.9859ZM159.78 87.9859C159.947 88.0473 160.107 88.0946 160.259 88.1292C160.26 88.1245 160.261 88.1198 160.263 88.1151L159.78 87.9859ZM151.235 76.2273C151.488 75.9877 151.738 75.746 151.988 75.5041C152.395 75.1106 152.803 74.7165 153.224 74.3294C153.425 74.1451 153.653 73.9794 153.882 73.8134C153.95 73.7638 154.019 73.7142 154.086 73.6641C154.092 73.6453 154.098 73.6266 154.104 73.6079L154.144 73.6207C154.16 73.6092 154.175 73.5977 154.19 73.5861L154.581 73.7584C154.512 73.9769 154.442 74.1957 154.371 74.4147C154.206 74.928 154.041 75.443 153.891 75.9608C153.858 76.0701 153.823 76.1798 153.788 76.2896C153.65 76.7222 153.511 77.1581 153.503 77.5933M151.235 76.2273L150.893 75.8625C150.893 75.8629 150.893 75.8633 150.892 75.8636M151.235 76.2273L150.891 75.8645C150.892 75.8642 150.892 75.8639 150.892 75.8636M151.235 76.2273C150.673 76.7546 149.999 77.1303 149.075 76.8879C148.048 76.6214 147.415 76.024 147.283 75.191M150.892 75.8636C151.137 75.6316 151.383 75.3931 151.632 75.1525C152.044 74.7549 152.461 74.3513 152.885 73.9613L152.886 73.9607C153.109 73.7565 153.378 73.5614 153.616 73.388C153.713 73.3175 153.805 73.2506 153.887 73.1882L154.122 73.0096L154.392 73.1286L154.783 73.3009L155.192 73.4817L155.058 73.9089C154.987 74.1328 154.916 74.3546 154.845 74.5752C154.681 75.0854 154.519 75.5895 154.371 76.1002L154.37 76.1041C154.33 76.2364 154.29 76.3609 154.253 76.4795C154.119 76.9005 154.01 77.247 154.003 77.6023M150.892 75.8636C150.394 76.3307 149.891 76.585 149.202 76.4043L149.201 76.4039C148.305 76.1714 147.869 75.6932 147.777 75.1131M154.003 77.6023C154.003 77.6021 154.003 77.6019 154.003 77.6017L153.503 77.5933M154.003 77.6023C154.003 77.6025 154.003 77.6026 154.003 77.6027L153.503 77.5933M154.003 77.6023C153.968 79.6655 153.594 81.6991 152.133 83.5826M153.503 77.5933C153.469 79.5992 153.108 81.5109 151.738 83.2767M151.738 83.2767L152.133 83.5822C152.133 83.5823 152.133 83.5825 152.133 83.5826M151.738 83.2767L152.133 83.5832C152.133 83.583 152.133 83.5828 152.133 83.5826M151.738 83.2767L152.133 83.5826M147.777 75.1131C147.777 75.1132 147.777 75.1134 147.777 75.1136L147.283 75.191M147.777 75.1131C147.706 74.6611 147.722 74.2043 147.862 73.8326M147.777 75.1131C147.777 75.113 147.777 75.1128 147.777 75.1127L147.283 75.191M147.283 75.191C147.204 74.6855 147.214 74.1341 147.395 73.655M147.862 73.8326C147.862 73.833 147.862 73.8334 147.862 73.8338L147.395 73.655M147.862 73.8326C148.117 73.1684 148.408 72.5116 148.707 71.8418L148.724 71.8034C149.015 71.1498 149.312 70.4835 149.573 69.8071M147.862 73.8326C147.862 73.8322 147.863 73.8318 147.863 73.8314L147.395 73.655M147.395 73.655C147.659 72.9647 147.962 72.2845 148.265 71.6048C148.558 70.9475 148.85 70.2908 149.107 69.626M149.573 69.8071C149.573 69.8074 149.573 69.8076 149.573 69.8079L149.107 69.626M149.573 69.8071C149.815 69.1877 149.987 68.5325 150.151 67.9109C150.221 67.6456 150.289 67.3864 150.36 67.1388M149.573 69.8071C149.573 69.8068 149.574 69.8065 149.574 69.8063L149.107 69.626M149.107 69.626C149.338 69.0341 149.498 68.4258 149.658 67.817C149.73 67.5442 149.802 67.2713 149.88 66.9997M150.36 67.1388C150.36 67.1391 150.36 67.1395 150.36 67.1398L149.88 66.9997M150.36 67.1388C150.446 66.8428 150.523 66.5269 150.596 66.2252C150.638 66.0532 150.678 65.8858 150.719 65.7292C150.837 65.2762 150.968 64.8562 151.162 64.4662M150.36 67.1388C150.36 67.1385 150.36 67.1382 150.36 67.138L149.88 66.9997M149.88 66.9997C149.964 66.7118 150.035 66.4197 150.105 66.1275C150.261 65.4854 150.416 64.8428 150.714 64.2436L151.162 64.4662M162.206 53.4122C162.206 53.4119 162.206 53.4116 162.205 53.4113L162.632 53.1502M162.206 53.4122C162.318 53.5951 162.359 53.8386 162.363 54.1919C162.364 54.284 162.362 54.3924 162.36 54.5097C162.355 54.7779 162.349 55.0924 162.378 55.3638M162.206 53.4122C162.206 53.4125 162.206 53.4128 162.206 53.413L162.632 53.1502M162.632 53.1502C162.88 53.5559 162.87 54.0608 162.86 54.5676C162.854 54.8185 162.849 55.0699 162.875 55.31C162.892 55.4635 162.895 55.6242 162.898 55.7855C162.906 56.2048 162.915 56.6283 163.155 56.9403M162.378 55.3638C162.39 55.4781 162.394 55.6023 162.397 55.7474C162.398 55.7631 162.398 55.779 162.398 55.7952C162.401 55.9226 162.404 56.0662 162.414 56.2071C162.437 56.5207 162.501 56.9106 162.758 57.2444M162.378 55.3638C162.378 55.364 162.378 55.3642 162.378 55.3644L162.875 55.31L162.378 55.3629C162.378 55.3632 162.378 55.3635 162.378 55.3638ZM163.155 56.9403L162.757 57.2439C162.757 57.2441 162.758 57.2443 162.758 57.2444M163.155 56.9403L162.758 57.2449C162.758 57.2447 162.758 57.2446 162.758 57.2444M150.601 105.339L150.601 105.34C150.931 105.615 151.214 105.728 151.456 105.739C151.691 105.75 151.959 105.67 152.273 105.416L152.274 105.415C153.031 104.806 153.705 104.168 153.966 103.529C153.966 103.529 153.966 103.529 153.967 103.528L154.43 103.717C155.08 102.113 155.781 100.538 156.7 99.0184M150.601 105.339L156.7 99.0184M150.601 105.339C149.972 104.816 149.47 104.336 149.171 103.815C148.888 103.321 148.781 102.777 148.98 102.078L150.601 105.339ZM156.7 99.0184L156.272 98.7596C156.272 98.76 156.272 98.7605 156.271 98.7609C156.271 98.7613 156.271 98.7616 156.271 98.762L156.7 99.0184ZM159.438 87.3284L159.951 87.5163C160.718 87.7968 161.231 87.7277 161.645 87.5372C162.066 87.3431 162.419 87.0128 162.85 86.6082C162.884 86.5763 162.919 86.544 162.954 86.5113C163.137 86.3376 163.371 86.2421 163.545 86.1775C163.622 86.1489 163.69 86.125 163.756 86.1023C163.868 86.0633 163.97 86.0277 164.087 85.9775L164.527 85.7895L164.734 86.2205C164.854 86.4697 164.964 86.7322 165.063 86.9683C165.117 87.0979 165.168 87.2195 165.215 87.3267C165.36 87.6529 165.501 87.919 165.69 88.1468C165.882 88.3753 166.145 88.5884 166.462 88.8178C166.558 88.8868 166.661 88.9593 166.768 89.0342C166.996 89.1933 167.238 89.3635 167.454 89.5346L167.487 89.5609L167.515 89.5923L167.893 90.0128L167.914 90.0365L167.932 90.0627C168.061 90.2486 168.191 90.4358 168.323 90.6245C168.892 91.4386 169.479 92.2785 169.964 93.1448C170.566 94.2192 171.035 95.3723 171.145 96.6441C171.254 97.8798 172.033 98.808 173.349 99.6333C175.089 100.723 176.088 102.208 176.529 103.854C177.061 105.822 178.337 107.5 179.921 109.119L179.921 109.119C180.71 109.926 181.095 110.762 181.235 111.746M159.438 87.3284L181.235 111.746M159.438 87.3284L159.297 87.8567M159.438 87.3284L159.297 87.8567M181.235 111.746C181.242 111.796 181.249 111.845 181.256 111.894C181.354 112.593 181.438 113.188 181.751 113.668L181.751 113.669C182.449 114.745 183.024 115.867 183.147 117.181L183.147 117.183C183.191 117.671 183.716 118.12 184.658 118.132M181.235 111.746L184.658 118.132M184.658 118.132C185.195 118.137 185.511 118.05 185.713 117.913M184.658 118.132L185.713 117.913M159.297 87.8567C158.827 89.6135 158.412 91.1673 158.001 92.7235L158.484 92.8513L159.297 87.8567ZM186.189 117.136L186.19 117.133C186.212 117.059 186.219 116.997 186.232 116.883C186.239 116.815 186.249 116.728 186.266 116.609L186.326 116.171L186.768 116.176C187.576 116.187 188.099 116.104 188.43 115.948C188.719 115.811 188.88 115.611 188.955 115.259L188.955 115.258C189.243 113.908 189.391 112.684 188.794 111.506C188.504 110.936 188.26 110.353 188.024 109.789C187.986 109.699 187.949 109.609 187.911 109.52L187.911 109.52C186.298 105.681 184.708 101.759 184.432 97.5579C184.375 96.7593 183.802 95.8504 183.115 94.9978C183.114 94.9977 183.114 94.9977 183.114 94.9976L183.504 94.6838L186.189 117.136ZM186.189 117.136C186.067 117.563 185.905 117.784 185.713 117.913M186.189 117.136L185.713 117.913M176.4 87.0456L176.399 87.0456C175.269 86.897 174.104 86.6121 173.276 85.6932L176.4 87.0456ZM176.4 87.0456C177.859 87.2355 178.794 87.5232 179.419 87.9862C180.02 88.4308 180.396 89.0847 180.617 90.1698L176.4 87.0456ZM166.233 77.5815C166.609 78.0235 166.945 78.4726 167.291 78.936C167.465 79.1681 167.641 79.4038 167.826 79.644C167.873 79.7053 167.924 79.7754 167.978 79.8505C168.116 80.0406 168.277 80.2627 168.454 80.4546M166.233 77.5815L168.454 80.4546M168.454 80.4546C169.028 81.0789 169.603 81.7001 170.179 82.3207M168.454 80.4546L170.179 82.3207M170.179 82.3207C171.218 83.442 172.255 84.5612 173.276 85.6931L170.179 82.3207ZM153.045 88.1178L152.557 88.0066L153.044 88.1179C153.044 88.1179 153.044 88.1178 153.045 88.1178ZM151.172 96.1267L150.686 96.0095L151.172 96.1271L151.172 96.1267ZM156.691 97.6518C156.691 97.6519 156.691 97.6521 156.691 97.6522L157.173 97.7845L156.691 97.6518Z" fill="#11B0C8" stroke="#87F54E"/>
<path d="M439.998 107.278L439.999 107.277C440.441 106.798 440.542 106.301 440.357 105.828L440.357 105.827C439.933 104.734 439.459 103.655 438.896 102.61C437.922 100.829 437.329 98.9861 437.751 96.8848C438.323 94.0002 437.517 91.2589 435.241 88.8845C434.7 88.3198 434.305 87.7439 434.082 87.1157C433.858 86.4821 433.819 85.8262 433.943 85.1209L433.944 85.1204C434.075 84.3813 434.047 83.7308 433.573 83.1408C433.517 83.0712 433.461 83.0017 433.406 82.9325C432.076 81.2793 430.835 79.7363 428.671 78.7964C428.14 78.5674 427.746 78.1363 427.758 77.5723C427.768 77.0297 428.154 76.5938 428.656 76.3319L428.657 76.3316C428.945 76.1822 429.252 76.0729 429.531 75.9773C429.57 75.9638 429.609 75.9506 429.647 75.9376C429.89 75.8548 430.109 75.7801 430.317 75.689L430.319 75.6881C430.549 75.5885 430.777 75.493 431.001 75.3988C431.743 75.0877 432.451 74.7911 433.082 74.4102C434.204 73.7331 435.403 73.2519 436.81 73.0421L436.81 73.0421C437.244 72.9775 437.67 72.7988 438.149 72.5973L438.178 72.5853C439.675 71.9544 440.665 70.943 441.561 69.7745C442.02 69.1755 442.172 68.5759 442.08 67.9205L442.08 67.9203C442.061 67.7829 442.046 67.646 442.032 67.5168L442.029 67.4923C442.016 67.3698 442.004 67.2546 441.989 67.1405C441.956 66.8978 441.915 66.6845 441.843 66.4898C441.786 66.3359 441.738 66.1954 441.692 66.0611C441.62 65.8501 441.553 65.6545 441.464 65.4468C441.328 65.1315 441.174 64.8859 440.967 64.71L440.965 64.7085C440.143 64.0054 439.511 63.1915 438.915 62.4256C438.686 62.1303 438.462 61.8421 438.235 61.5701L438.233 61.5684C437.962 61.241 437.702 60.8685 437.638 60.4293C437.568 59.9562 437.737 59.516 438.072 59.0835L438.073 59.0825C438.424 58.6308 438.48 58.2781 438.405 57.9851C438.323 57.6637 438.054 57.2952 437.51 56.894C436.317 56.0221 434.971 55.6349 433.347 55.9229L433.346 55.9231C431.751 56.2035 430.288 55.9051 428.926 55.3633L428.925 55.3631C427.932 54.9669 427.181 54.8148 426.526 54.8856C425.884 54.9549 425.273 55.2451 424.573 55.862C423.503 56.8064 422.531 57.8079 421.543 58.8245C421.134 59.2461 420.722 59.6703 420.299 60.0942L420.298 60.095C420.156 60.2372 420.027 60.3804 419.875 60.5488C419.799 60.6329 419.718 60.7233 419.626 60.8229L419.326 61.149L418.966 60.8906C418.052 60.2339 417.962 59.387 417.898 58.7813C417.887 58.6769 417.877 58.5797 417.864 58.4918C417.814 58.1798 417.766 57.8697 417.719 57.5614C417.525 56.2891 417.334 55.046 417.015 53.8209L417.014 53.8203C416.852 53.1933 416.323 52.8694 415.537 52.8655L415.534 52.8654C414.699 52.8569 413.987 53.3249 413.764 53.9737L413.763 53.9766L413.763 53.9766C413.726 54.0807 413.71 54.2072 413.706 54.3788C413.704 54.4531 413.704 54.5277 413.705 54.6112C413.705 54.6243 413.705 54.6377 413.705 54.6513C413.706 54.7475 413.706 54.8545 413.701 54.9631L439.998 107.278ZM439.998 107.278C439.071 108.286 437.438 108.43 436.212 107.53L436.212 107.53C434.985 106.632 434.353 105.459 434.034 104.185C433.662 102.677 433.192 101.197 432.488 99.7355L432.488 99.7345C432.194 99.127 432.174 98.3653 432.224 97.5649C432.281 96.6483 432.147 95.7856 431.772 94.9824C431.397 94.1801 430.795 93.4647 429.955 92.8228L429.955 92.8227C429.272 92.3016 428.707 91.6374 428.206 90.9487L439.998 107.278ZM411.398 73.9632L411.398 73.9636C411.458 74.7155 412.021 75.2803 413.112 75.7493C413.856 76.0671 414.442 76.4723 414.707 77.0632C414.982 77.6771 414.846 78.3379 414.513 78.9997C414.336 79.3541 414.128 79.6949 413.933 80.0154L413.92 80.0369C413.717 80.3703 413.528 80.6828 413.37 81.0017L413.37 81.0023C412.843 82.0648 412.79 83.0647 413.456 83.9925L413.457 83.9932C413.937 84.6647 414.199 85.3441 414.262 86.0542C414.325 86.7593 414.188 87.4601 413.926 88.1724C413.566 89.1547 413.425 90.246 413.589 91.2234L413.589 91.2237C413.829 92.6625 413.848 94.0698 413.625 95.4963L413.624 95.4987C413.534 96.0614 413.466 96.556 413.54 97.0091C413.602 97.3558 413.787 97.7332 414.051 97.9574C415.26 98.9757 417.113 98.6713 417.736 97.4762C418.152 96.6724 418.327 95.7243 418.347 94.8075L418.347 94.8069C418.382 93.2193 418.795 91.7688 419.62 90.327L419.62 90.3266C420.066 89.549 420.269 88.6818 420.489 87.7459C420.529 87.5754 420.569 87.4027 420.612 87.2278C420.679 86.945 420.705 86.6467 420.718 86.3453C420.722 86.2415 420.725 86.1275 420.727 86.0125C420.732 85.824 420.736 85.6325 420.748 85.4782L420.808 84.6853L421.496 85.0828C421.631 85.1605 421.784 85.2465 421.947 85.338C422.233 85.4993 422.551 85.6777 422.851 85.8577C422.851 85.8577 422.851 85.8577 422.851 85.8578L422.594 86.2867L411.398 73.9632ZM411.398 73.9632C411.39 73.8588 411.381 73.7564 411.373 73.6557C411.311 72.9318 411.256 72.2995 411.418 71.7155C412.062 69.4094 412.513 67.0978 412.586 64.6971C412.62 63.666 412.782 62.6297 412.974 61.5689C413.021 61.3113 413.07 61.0514 413.119 60.7897C413.27 59.9847 413.424 59.1634 413.531 58.3449C413.634 57.5628 413.652 56.7556 413.67 55.9814M411.398 73.9632L413.67 55.9814M413.67 55.9814C413.678 55.6336 413.685 55.2925 413.701 54.9634L413.67 55.9814ZM427.98 70.4735L427.98 70.4728C428.174 70.1889 428.383 69.8383 428.522 69.4719C428.657 69.1157 428.751 68.675 428.62 68.2493C428.367 67.418 428.271 66.7303 428.458 66.1237C428.639 65.537 429.12 64.9244 430.258 64.3238L431.796 63.5119L430.061 63.383C429.236 63.3217 428.563 63.2863 428.007 63.3007C427.45 63.3151 426.978 63.3795 426.568 63.5361C425.708 63.8639 425.252 64.5444 424.756 65.504L424.755 65.505C424.499 66.0031 424.17 66.395 423.724 66.6997C423.273 67.0072 422.679 67.2421 421.872 67.3889L421.265 67.4993L421.499 68.0703C421.538 68.1669 421.571 68.273 421.604 68.3946C421.613 68.4256 421.622 68.4594 421.632 68.4947C421.656 68.5861 421.683 68.6878 421.712 68.7795C421.79 69.0299 421.926 69.3836 422.267 69.6023C423.208 70.2071 423.923 70.916 424.53 71.7326L424.531 71.7346C424.684 71.9372 424.911 72.0526 425.059 72.1244C425.124 72.1555 425.182 72.1827 425.24 72.209C425.348 72.2589 425.45 72.3058 425.569 72.3711L425.891 72.548L426.156 72.2934C426.347 72.1098 426.531 71.947 426.72 71.7801C426.845 71.6691 426.972 71.5564 427.105 71.4345C427.419 71.1468 427.734 70.8333 427.98 70.4735ZM440.366 107.616C440.912 107.025 441.09 106.331 440.823 105.646L435.916 107.934C437.329 108.97 439.251 108.828 440.366 107.616Z" fill="#11B0C8" stroke="#87F54E"/>
<path d="M440.955 77.1295L440.955 77.1296C440.383 77.2471 440.065 77.4448 439.907 77.6436C439.765 77.8226 439.7 78.0703 439.795 78.4458L439.795 78.446C439.915 78.9167 440.145 79.2488 440.466 79.4606C440.793 79.676 441.266 79.8012 441.927 79.7554C443.202 79.6656 444.267 79.9867 445.288 80.2943C445.385 80.3236 445.482 80.3528 445.579 80.3815L445.579 80.3815C446.042 80.5193 446.472 80.7055 446.876 80.8951C447.023 80.9639 447.164 81.0316 447.301 81.0979C447.555 81.22 447.798 81.3375 448.056 81.4495C448.825 81.784 449.598 82.0137 450.551 81.9232L451.372 81.8452L451.061 82.6094C451.019 82.7132 450.992 82.7954 450.962 82.8832C450.949 82.9236 450.935 82.9651 450.919 83.0105C450.873 83.1397 450.811 83.3008 450.694 83.4536C449.909 84.5013 449.612 85.6266 449.562 86.8778L449.562 86.8798C449.528 87.6453 449.066 88.3909 448.653 88.9376C448.185 89.5642 448.079 90.115 448.287 90.6946L448.288 90.6973C448.504 91.3079 448.739 91.8815 449.097 92.3752L449.098 92.3765C449.37 92.7545 449.549 93.1471 449.57 93.5831C449.59 94.018 449.45 94.4275 449.215 94.8339C448.803 95.5595 448.56 96.2679 448.531 96.9565C448.503 97.6365 448.683 98.3288 449.168 99.037L449.169 99.0386C449.368 99.3321 449.576 99.7622 449.551 100.207L449.551 100.212C449.521 100.66 449.51 101.116 449.502 101.583C449.501 101.647 449.5 101.712 449.498 101.777C449.491 102.178 449.484 102.588 449.466 102.996C449.423 103.943 449.319 104.915 449 105.857L448.999 105.858C448.197 108.202 448.122 110.544 448.193 112.978L440.955 77.1295ZM440.955 77.1295C441.351 77.0478 441.769 76.997 442.177 76.9797L442.179 76.9796C443.187 76.9327 444.162 76.7369 445.018 76.1714C445.74 75.6963 446.633 75.6142 447.701 75.6107L447.701 75.6107C448.211 75.6089 448.66 75.5724 449.039 75.4839C449.417 75.3956 449.758 75.2483 450.02 75.0012C450.578 74.473 450.576 73.7018 450.371 72.8902L450.371 72.8898C450.056 71.6498 450.239 70.5044 450.944 69.3821C451.564 68.3976 451.88 67.362 451.859 66.2413L451.859 66.2388M440.955 77.1295L451.859 66.2388M461.431 75.6312C464.044 75.3589 464.474 75.4669 465.878 76.9788C466.21 76.9788 466.54 76.9778 466.868 76.9768C467.594 76.9746 468.313 76.9724 469.029 76.9811M461.431 75.6312L469.999 84.7841C469.021 84.2085 468.065 84.0535 466.79 84.2109C464.486 84.4889 462.183 84.3499 460.293 82.9885C459.991 82.7697 459.578 82.6483 459.164 82.5269C458.972 82.4703 458.779 82.4138 458.598 82.3474L458.196 82.576C458.211 82.8296 458.22 83.0841 458.23 83.3387C458.25 83.8926 458.269 84.447 458.357 84.9932C458.633 86.7418 458.526 88.4295 457.394 90.0057C457.016 90.5296 456.982 91.0592 457.259 91.6141M461.431 75.6312C461.281 75.6462 461.131 75.6632 460.98 75.6802C460.14 75.7751 459.276 75.8727 458.332 75.6554L461.431 75.6312ZM469.029 76.9811L469.023 77.481C469.023 77.481 469.023 77.481 469.023 77.481C470.328 77.4984 471.403 77.8532 472.191 78.583L472.193 78.5853C472.759 79.1024 473.397 79.3163 474.169 79.3948C475.134 79.4935 476.093 79.6368 476.966 79.894L476.966 79.8942C477.601 80.0803 478.222 80.4105 478.69 80.7881L478.692 80.789C479.154 81.1598 479.257 81.4666 479.24 81.6786C479.222 81.9048 479.053 82.2199 478.545 82.5672C478.29 82.7406 478.027 82.8804 477.737 83.0342C477.58 83.1177 477.415 83.2053 477.24 83.3046L477.003 83.4383L476.987 83.7094C476.94 84.4785 476.732 84.8704 476.404 85.1C476.039 85.3557 475.409 85.4968 474.314 85.4665C472.799 85.4205 471.433 85.0532 470.254 84.354L470.252 84.3532C469.161 83.7112 468.09 83.5466 466.729 83.7145C464.471 83.9869 462.324 83.8347 460.586 82.5833C460.296 82.3734 459.95 82.2462 459.645 82.1495C459.513 82.1078 459.394 82.0728 459.28 82.0397C459.102 81.9875 458.939 81.9398 458.77 81.8779L458.552 81.7983L458.351 81.9127L457.949 82.1413L457.677 82.2955L457.696 82.607C457.71 82.8332 457.719 83.0723 457.728 83.3187C457.749 83.8874 457.771 84.4949 457.863 85.0722C458.128 86.7483 458.014 88.2846 456.988 89.714C456.755 90.0364 456.612 90.3853 456.583 90.7589C456.553 91.1325 456.64 91.4939 456.811 91.8368L457.259 91.6141M469.029 76.9811C470.42 76.9995 471.627 77.3797 472.531 78.2161L469.029 76.9811ZM457.259 91.6141C457.792 92.6936 457.676 93.8086 457.561 94.9145C457.547 95.0515 457.533 95.1883 457.52 95.3249M457.259 91.6141L456.81 91.8355C457.276 92.7777 457.177 93.7422 457.063 94.8653C457.049 94.9994 457.036 95.1358 457.022 95.2746M457.52 95.3249L457.023 95.2726C457.023 95.2733 457.023 95.274 457.022 95.2746M457.52 95.3249C457.482 95.688 457.232 96.074 456.954 96.3796L457.52 95.3249ZM457.022 95.2746C457 95.4757 456.84 95.7614 456.585 96.0428M457.022 95.2746L456.585 96.0428M456.585 96.0428C455.236 97.5158 454.892 99.1911 454.703 100.833C454.365 103.732 453.946 106.632 453.504 109.531C453.435 109.977 453.266 110.4 453.075 110.879C453.006 111.05 452.935 111.229 452.865 111.419M456.585 96.0428L448.193 112.979C448.225 114.021 448.495 115.006 449.276 115.814M452.865 111.419C452.865 111.419 452.865 111.418 452.865 111.418L453.333 111.594L452.864 111.419C452.864 111.419 452.864 111.419 452.865 111.419ZM452.865 111.419C452.4 112.655 451.924 113.885 451.443 115.111M451.443 115.111C451.431 115.142 451.419 115.172 451.408 115.2C451.318 115.428 451.257 115.584 451.156 115.719M451.443 115.111C451.443 115.111 451.443 115.112 451.443 115.112L451.908 115.294M451.443 115.111C451.443 115.111 451.443 115.11 451.444 115.11L451.908 115.294M451.156 115.719C450.867 116.104 450.547 116.263 450.261 116.28C449.974 116.297 449.628 116.177 449.276 115.814M451.156 115.719C451.156 115.72 451.156 115.72 451.156 115.72L451.557 116.018M451.156 115.719C451.157 115.719 451.157 115.719 451.157 115.718L451.557 116.018M449.276 115.814C449.276 115.814 449.276 115.814 449.276 115.814L448.917 116.162M449.276 115.814C449.276 115.814 449.276 115.814 449.276 115.814L448.917 116.162M448.917 116.162C449.775 117.046 450.842 116.972 451.557 116.018M448.917 116.162L451.908 115.294M451.557 116.018C451.701 115.825 451.787 115.603 451.873 115.384C451.885 115.354 451.897 115.324 451.908 115.294M451.859 66.2388C451.826 64.8714 452.29 63.5487 452.9 62.1687L451.859 66.2388ZM460.436 67.8066C459.993 69.7082 459.279 71.5558 458.223 73.3174L461.565 55.1711L461.163 54.8733C461.163 54.8734 461.163 54.8734 461.163 54.8735C460.946 55.1652 460.761 55.431 460.64 55.6757C460.517 55.9258 460.433 56.2092 460.493 56.5177C460.552 56.8207 460.734 57.0576 460.939 57.2552C461.144 57.452 461.421 57.654 461.747 57.8775C462.468 58.3735 462.783 58.9085 462.908 59.4611C463.036 60.0273 462.974 60.6567 462.84 61.3702L462.778 61.5253C461.462 63.536 460.926 65.7037 460.436 67.8064L460.436 67.8066ZM458.804 49.7138C459.455 48.5811 460.412 47.7759 462.049 47.5713L458.804 49.7138Z" fill="#11B0C8" stroke="#87F54E"/>
<path d="M128.078 95.8222C128.66 95.2846 129.387 95.0376 130.422 95.3443C131.054 95.5316 131.951 95.4086 132.625 95.2076C133.431 94.9686 134.197 94.5642 134.841 94.1127M128.078 95.8222L127.739 95.4546M128.078 95.8222C127.41 96.438 126.842 97.1377 126.356 97.8523C126.058 98.293 125.807 98.7541 125.555 99.2154C125.287 99.7066 125.019 100.198 124.696 100.665M128.078 95.8222L127.739 95.4551C127.739 95.4549 127.739 95.4547 127.739 95.4546M127.739 95.4546C128.08 95.1401 128.481 94.8942 128.965 94.78C129.449 94.6658 129.979 94.6917 130.564 94.8649L130.564 94.8649C131.055 95.0105 131.838 94.9205 132.482 94.7285L132.483 94.7282C133.227 94.5077 133.943 94.131 134.553 93.7042M127.739 95.4546L111.451 88.1467C111.407 88.248 111.362 88.3497 111.316 88.4517C111.021 89.1178 110.72 89.7977 110.646 90.4812C110.511 91.7151 111.26 92.2918 112.868 92.3895C113.377 92.4222 113.889 92.4211 114.402 92.42C114.662 92.4195 114.922 92.4189 115.182 92.4228C116.788 92.4538 117.29 92.8685 116.979 94.0966C116.695 95.2306 116.984 96.2083 118.186 96.8505C119.293 97.449 119.521 98.2314 119.547 99.1746C119.563 99.7732 119.643 100.387 119.856 100.96M134.553 93.7042C134.553 93.7044 134.553 93.7046 134.552 93.7048L134.841 94.1127M134.553 93.7042C134.554 93.7038 134.554 93.7035 134.554 93.7032L134.841 94.1127M134.553 93.7042C135.797 92.8231 137.124 92.5911 138.702 92.7966M134.841 94.1127C135.962 93.3189 137.156 93.0994 138.638 93.2924M138.638 93.2924L138.702 92.7966M138.638 93.2924C142.04 93.7348 145.17 91.9759 145.715 89.3162C145.829 88.7682 145.683 88.0801 145.324 87.609M138.638 93.2924L138.702 92.7966C138.702 92.7966 138.702 92.7966 138.702 92.7966M138.702 92.7966C141.948 93.2185 144.751 91.5284 145.225 89.2159L145.225 89.2139C145.311 88.807 145.196 88.267 144.927 87.9121M144.927 87.9121C144.927 87.9124 144.927 87.9127 144.927 87.913L145.324 87.609M144.927 87.9121C144.926 87.912 144.926 87.9119 144.926 87.9118L145.324 87.609M144.927 87.9121C144.634 87.5306 144.276 87.3556 143.83 87.3458C143.356 87.3353 142.749 87.5125 142.008 87.9299L141.763 87.4942M145.324 87.609C144.556 86.6061 143.324 86.6153 141.763 87.4942M141.763 87.4942L142.008 87.9299C140.987 88.5048 140.087 88.8278 139.151 88.8334C138.214 88.839 137.307 88.5269 136.272 87.9603M141.763 87.4942L136.272 87.9603M136.272 87.9603C136.009 87.8163 135.751 87.6651 135.501 87.5185C135.465 87.4974 135.429 87.4764 135.393 87.4555C135.107 87.2876 134.828 87.1267 134.543 86.9785L134.542 86.9777C133.589 86.4785 132.701 86.3627 131.841 86.9106L131.84 86.9113C131.026 87.4265 130.193 87.3969 129.389 87.0733L129.388 87.0728C128.395 86.6697 127.463 86.8116 126.519 87.2802L126.517 87.2815C126.178 87.4473 125.85 87.6273 125.51 87.8136C125.465 87.8383 125.42 87.8631 125.375 87.888C124.991 88.0984 124.591 88.3136 124.17 88.5052L124.168 88.5063C123.513 88.8003 122.827 88.8359 122.271 88.5882C121.696 88.3319 121.318 87.7932 121.307 87.1001C121.299 86.6768 121.407 86.2288 121.625 85.8438C121.625 85.8437 121.625 85.8437 121.625 85.8436L122.06 86.0903C122.415 85.463 122.835 84.8587 123.267 84.2613L136.272 87.9603ZM119.856 100.96C120.017 101.392 120.352 101.825 120.747 102.158C121.424 102.74 122.371 102.804 123.098 102.278M119.856 100.96L120.324 100.786C120.324 100.786 120.324 100.786 120.324 100.786M119.856 100.96L120.324 100.785C120.324 100.785 120.324 100.785 120.324 100.786M123.098 102.278C123.725 101.818 124.285 101.256 124.696 100.665M123.098 102.278L122.805 101.873C122.805 101.873 122.804 101.873 122.804 101.874M123.098 102.278L122.803 101.874C122.803 101.874 122.803 101.874 122.804 101.874M124.696 100.665L124.285 100.38M124.696 100.665L124.286 100.379C124.285 100.38 124.285 100.38 124.285 100.38L124.285 100.38M124.285 100.38C123.909 100.921 123.39 101.444 122.804 101.874M124.285 100.38L122.804 101.874M122.804 101.874C122.274 102.256 121.583 102.217 121.073 101.779L121.069 101.776C120.723 101.484 120.449 101.118 120.324 100.786M122.804 101.874L111.825 81.2348C111.943 81.138 112.059 81.0415 112.173 80.9445C113.028 80.215 113.514 79.3694 113.58 78.3883M120.324 100.786C120.137 100.282 120.062 99.7277 120.047 99.1611L120.047 99.1606C120.033 98.6577 119.965 98.1401 119.717 97.6556C119.464 97.1616 119.049 96.7489 118.424 96.4106L118.422 96.4095C117.902 96.1319 117.624 95.8077 117.489 95.4718C117.353 95.1306 117.339 94.716 117.463 94.2186C117.63 93.5613 117.638 92.8978 117.135 92.4407C116.906 92.2322 116.612 92.111 116.298 92.0377C115.982 91.9641 115.61 91.9309 115.192 91.9228L115.19 91.9228C114.911 91.9187 114.642 91.9193 114.378 91.9199C113.876 91.9211 113.394 91.9223 112.9 91.8905L112.898 91.8904C112.129 91.8436 111.671 91.6847 111.424 91.4779C111.214 91.3024 111.088 91.0347 111.143 90.5356L111.143 90.5349C111.208 89.9353 111.473 89.3351 111.771 88.6614C111.816 88.5581 111.863 88.4531 111.909 88.3462L111.91 88.3451C111.967 88.2127 112.063 88.0727 112.214 87.8851C112.257 87.8318 112.306 87.7724 112.359 87.7083C112.476 87.5666 112.611 87.4021 112.739 87.2309L113.333 86.4324H112.338C112.176 86.4324 112.045 86.434 111.934 86.4355C111.742 86.4379 111.606 86.4397 111.46 86.4309L111.46 86.4309C110.829 86.3935 110.375 86.217 110.115 85.991C109.879 85.7865 109.774 85.523 109.851 85.1616L109.852 85.16C110.015 84.38 110.424 83.5794 110.928 82.8187L110.929 82.8169C111.091 82.5704 111.32 82.3314 111.6 82.0813C111.775 81.9245 111.949 81.7809 112.131 81.6314C112.249 81.5336 112.37 81.4334 112.498 81.3251L112.498 81.3248C113.431 80.5286 114.002 79.5661 114.079 78.4219L113.58 78.3883M113.58 78.3883C113.684 76.9051 114.168 75.5552 115.088 74.2179C115.721 73.2893 115.914 72.1362 116.094 71.058C116.098 71.0371 116.101 71.0162 116.105 70.9954M113.58 78.3883L114.079 78.4233C114.177 77.0358 114.626 75.7708 115.5 74.5015L115.502 74.4994C116.197 73.4783 116.406 72.229 116.581 71.1793C116.587 71.1456 116.592 71.1121 116.598 71.0788M116.105 70.9954L116.598 71.0798C116.598 71.0795 116.598 71.0791 116.598 71.0788M116.105 70.9954C116.554 68.3725 117.642 67.3259 120.936 66.5872L116.105 70.9954ZM116.598 71.0788C116.813 69.8209 117.168 69.0283 117.793 68.4524C118.433 67.8622 119.422 67.4393 121.046 67.0751L121.046 67.0752L121.054 67.0733L121.816 66.8893M116.598 71.0788L121.816 66.8893M121.816 66.8893C122.695 66.7628 123.457 66.5178 124.04 66.0721C124.644 65.6101 125.013 64.9654 125.148 64.1369C125.176 63.9757 125.285 63.7574 125.487 63.515C125.684 63.279 125.939 63.0572 126.195 62.8888L121.816 66.8893ZM135.829 66.379C134.637 66.3706 133.51 66.5781 132.386 67.1326L131.891 67.3771L132.183 67.8457C132.464 68.2958 132.452 68.6459 132.312 68.9589C132.153 69.3118 131.804 69.6697 131.306 70.0257C129.764 71.1289 128.159 72.1763 126.543 73.2304C126.215 73.4446 125.886 73.659 125.557 73.8743L125.557 73.8745C124.137 74.8059 122.567 75.8933 122.238 77.8039L122.176 78.168L122.505 78.3347C122.646 78.4058 122.765 78.4653 122.87 78.5181C123.045 78.6057 123.183 78.6748 123.322 78.7474L123.323 78.7483C124.319 79.2649 124.755 79.6747 124.901 80.0626C125.037 80.4239 124.976 80.9228 124.494 81.7936L126.196 62.8887C128.012 61.696 130.17 61.0641 132.587 60.9413C133.519 60.8955 134.247 61.0851 134.748 61.5541C135.503 62.265 136.373 62.2305 137.187 62.1723C138.486 62.0822 139.785 62.0462 141.097 62.0099C141.596 61.9961 142.096 61.9822 142.599 61.9653L142.6 61.9653C143.52 61.9335 144.139 62.2198 144.486 62.7428L144.487 62.7444C144.673 63.0218 144.701 63.2632 144.649 63.491C144.593 63.7391 144.431 64.0146 144.156 64.3084C142.832 65.7186 140.923 66.2893 138.621 66.3586L138.621 66.3586C137.694 66.387 136.765 66.3848 135.829 66.379ZM135.829 66.379C135.829 66.379 135.829 66.379 135.829 66.379L135.825 66.879L135.828 66.379C135.828 66.379 135.828 66.379 135.829 66.379Z" fill="#11B0C8" stroke="#87F54E"/>
<path d="M405.324 74.0703L405.325 74.0683C406.075 71.9668 406.01 69.9485 404.687 68.0035L404.687 68.0033C404.328 67.4751 404.17 66.8568 404.1 66.3166C403.967 65.3779 403.566 64.6087 402.661 63.9128L402.66 63.9125C400.903 62.5589 399.036 61.4474 396.715 60.8093C393.515 59.9335 390.61 60.2377 388.203 61.9722L405.324 74.0703ZM405.324 74.0703C405.033 74.897 404.547 75.6989 404.036 76.5422L404 76.6021C404 76.6024 404 76.6026 404 76.6028C403.547 77.3453 403.371 78.0795 403.527 78.8162C403.681 79.5366 404.135 80.1788 404.775 80.7824C406.039 81.9832 407.083 83.2379 407.546 84.7129L405.324 74.0703ZM383.873 65.9601L383.873 65.9602C383.419 66.3757 382.881 66.8436 382.234 67.1648C379.705 68.4218 377.896 69.9246 377.445 72.135L377.445 72.136C377.129 73.6667 376.437 75.0031 375.118 76.2211C373.703 77.5297 373.643 79.4142 374.781 80.5546L374.782 80.5549C376.727 82.5074 377.072 84.6854 376.683 86.9759L376.683 86.9765C376.586 87.5398 376.525 88.0983 376.457 88.729C376.426 89.0109 376.394 89.3072 376.356 89.6248C376.393 89.8377 376.425 90.0769 376.457 90.3137C376.482 90.4905 376.506 90.6659 376.531 90.828C376.599 91.263 376.687 91.6884 376.836 92.0897L376.837 92.0911C377.124 92.8713 377.923 93.3156 378.884 93.1241C380.386 92.8198 381.461 93.3488 382.45 93.8354C382.488 93.8541 382.526 93.8728 382.563 93.8913L382.564 93.8917C383.378 94.2929 384.212 94.6631 385.078 94.9557L385.08 94.9564C385.641 95.1489 386.14 95.3865 386.51 95.9505L386.51 95.9513C386.913 96.5695 387.332 96.9369 387.834 97.1339C388.346 97.3347 389.007 97.3827 389.938 97.242C390.302 97.1866 390.663 97.1176 391.033 97.0466L391.035 97.0463C391.403 96.9758 391.782 96.9034 392.164 96.8455C392.931 96.7295 393.738 96.668 394.595 96.7935L394.596 96.7936C394.815 96.8263 395.162 96.7557 395.424 96.6348C395.424 96.6347 395.424 96.6346 395.424 96.6344L395.634 97.0883C396.091 96.8763 396.566 96.6778 397.043 96.4791L383.873 65.9601ZM383.873 65.9601C384.38 65.4962 384.87 65.0081 385.35 64.5292M383.873 65.9601L385.35 64.5292M393.041 76.6758C392.819 76.5548 392.588 76.4504 392.376 76.3545L392.361 76.3477C392.148 76.2517 391.954 76.164 391.77 76.0664L391.77 76.0663C390.939 75.6238 390.362 75.1344 390.036 74.6015C389.72 74.0859 389.617 73.4923 389.8 72.7675L389.8 72.765C389.948 72.1681 390.127 71.5799 390.312 70.9769C390.38 70.7539 390.449 70.5289 390.516 70.3006L390.806 69.3279L389.858 69.691C389.125 69.972 388.393 70.3345 387.878 70.8362C387.34 71.3606 387.028 72.0535 387.212 72.9119L387.212 72.9122C387.372 73.6549 387.305 74.2716 387.047 74.8176C386.785 75.3724 386.304 75.899 385.558 76.416C384.685 77.0208 384.082 77.7379 383.766 78.5602C383.451 79.3839 383.442 80.2687 383.682 81.1776C383.757 81.4646 383.825 81.7543 383.894 82.0507L383.906 82.0987C383.971 82.3782 384.037 82.664 384.11 82.9493L384.595 82.8252L384.11 82.9493C384.193 83.2735 384.341 83.6313 384.66 83.8939C384.985 84.1615 385.411 84.2685 385.922 84.2509L385.924 84.2508C386.895 84.214 387.51 84.6563 388.06 85.3045C388.535 85.8739 389.004 86.4457 389.5 87.0504C389.745 87.3501 389.998 87.6579 390.261 87.9774L390.425 88.1764L390.682 88.1584C391.634 88.0917 392.703 88.0111 393.72 87.9342L394.127 87.9034L394.178 87.4984C394.187 87.4331 394.195 87.3697 394.203 87.308C394.269 86.8009 394.32 86.4114 394.24 86.0231C394.15 85.5862 393.902 85.171 393.509 84.5338L393.508 84.5327L393.665 79.1075L394.126 79.3015C394.126 79.3013 394.126 79.3011 394.126 79.301C394.343 78.7848 394.452 78.2663 394.235 77.768C394.029 77.2949 393.58 76.9665 393.041 76.6758ZM393.041 76.6758C393.041 76.6756 393.04 76.6754 393.04 76.6753L392.803 77.1154L393.042 76.6764C393.042 76.6762 393.041 76.676 393.041 76.6758ZM385.35 64.5292C385.57 64.3092 385.789 64.0913 386.006 63.8785M385.35 64.5292L386.006 63.8785M386.006 63.8785C386.705 63.1938 387.412 62.5432 388.203 61.9723L386.006 63.8785Z" fill="#11B0C8" stroke="#87F54E"/>
<path d="M104.114 84.9471L103.96 84.7173C103.421 83.8798 103.44 83.0768 104.098 82.2645C104.338 81.9684 104.551 81.6576 104.764 81.3467C105.02 80.9723 105.277 80.5978 105.581 80.2483C106.84 78.8099 106.662 76.9487 104.21 75.824L104.114 84.9471ZM104.114 84.9471C105.182 86.5084 105.439 88.1202 104.613 89.8022C104.539 89.9574 104.482 90.1183 104.425 90.2785C104.332 90.5371 104.241 90.7939 104.08 91.0223C102.562 93.2281 102.246 95.5832 102.466 98.043C102.544 98.87 102.41 99.713 102.278 100.548C102.248 100.739 102.218 100.929 102.19 101.118C102.145 101.448 101.933 101.785 101.707 102.073M104.114 84.9471L104.002 76.279M104.002 76.279C103.256 75.9415 102.741 75.5202 102.415 74.991C102.091 74.4654 101.986 73.8863 101.964 73.2972C101.899 71.5875 102.275 69.959 103.04 68.3818L103.04 68.3812C103.562 67.3084 103.75 66.3419 103.201 65.4658L104.002 76.279ZM104.002 76.279C105.144 76.8027 105.657 77.4505 105.802 78.0382C105.946 78.6232 105.759 79.2859 105.205 79.919L105.204 79.9201C104.905 80.2639 104.652 80.6261 104.417 80.9686C104.395 81 104.374 81.0312 104.353 81.0621C104.138 81.3758 103.936 81.6701 103.709 81.9498L103.709 81.9498C103.33 82.4176 103.107 82.92 103.081 83.4573C103.055 83.9937 103.229 84.5056 103.539 84.9879L103.539 84.988L103.545 84.996L103.699 85.2257L103.699 85.2258L103.701 85.2293C104.687 86.6714 104.896 88.0915 104.165 89.5819L104.165 89.5819L104.162 89.5865C104.076 89.7676 104.006 89.9626 103.948 90.1262C103.932 90.1712 103.917 90.2137 103.902 90.253C103.829 90.452 103.762 90.6052 103.671 90.7348L103.671 90.7348L103.668 90.7388C102.064 93.0696 101.741 95.5526 101.968 98.0876L101.968 98.0897C102.04 98.848 101.919 99.6139 101.788 100.445C101.757 100.641 101.725 100.842 101.695 101.047L101.695 101.05C101.669 101.239 101.532 101.485 101.317 101.761M101.707 102.073L101.319 101.757C101.318 101.759 101.317 101.76 101.317 101.761M101.707 102.073C100.849 103.127 99.51 103.234 98.3894 102.328L101.707 102.073ZM101.317 101.761C100.966 102.189 100.54 102.403 100.108 102.437C99.672 102.471 99.1804 102.324 98.7043 101.94L101.317 101.761ZM95.4786 80.7607L95.9779 80.7886C95.9779 80.7887 95.9779 80.7888 95.9778 80.7889C95.9618 81.0755 95.9491 81.3673 95.9363 81.6625C95.8931 82.6559 95.8482 83.6886 95.6686 84.6983C95.6585 84.7564 95.6484 84.8133 95.6386 84.8691C95.4902 85.7111 95.3863 86.3007 95.739 86.8838C96.2638 87.7494 96.352 88.6493 96.0828 89.5504C95.8614 90.3026 96.0437 90.9792 96.6284 91.6637C97.3262 92.4765 97.5796 93.3809 97.5469 94.332C97.5341 94.8542 97.5375 95.3728 97.541 95.9C97.5426 96.146 97.5442 96.3938 97.5442 96.6448V97.1448H97.4959C97.4948 97.2619 97.4934 97.3783 97.492 97.4941C97.4846 98.1174 97.4774 98.7235 97.5083 99.3379C97.5598 100.347 97.8383 101.237 98.7036 101.939L93.4969 77.3144C93.3566 76.8132 93.4291 76.2312 93.716 75.5607M95.4786 80.7607C95.5154 80.1184 95.1732 79.5969 94.5123 79.1982M95.4786 80.7607C95.4618 81.0611 95.4487 81.3619 95.4356 81.6628C95.3925 82.6503 95.3495 83.6377 95.1761 84.6116L95.4786 80.7607ZM94.5123 79.1982L94.7706 78.7701C94.7706 78.7701 94.7706 78.7701 94.7706 78.7701L94.5123 79.1982ZM94.5123 79.1982C92.8234 78.1792 92.6281 76.8316 93.2566 75.3633M93.2566 75.3633L93.7158 75.5612C93.7159 75.5611 93.7159 75.5609 93.716 75.5607M93.2566 75.3633L93.7163 75.5601C93.7162 75.5603 93.7161 75.5605 93.716 75.5607M93.2566 75.3633C93.4909 74.8199 93.7871 74.2932 94.0838 73.7656L93.716 75.5607M93.716 75.5607C93.8977 75.1394 94.1213 74.723 94.3618 74.292C94.4126 74.201 94.4644 74.1089 94.5166 74.0161C94.7079 73.6759 94.9056 73.3244 95.0855 72.9698M93.716 75.5607L95.0855 72.9698M95.0855 72.9698C95.112 72.9181 95.1392 72.8654 95.167 72.8117C95.4017 72.3577 95.674 71.8309 95.8037 71.2814L95.8038 71.2812C95.8906 70.9131 95.8862 70.5018 95.6872 70.1224C95.4862 69.7393 95.1252 69.4619 94.6422 69.2912L94.6416 69.291C94.0993 69.1001 93.882 68.8658 93.7906 68.6617C93.693 68.4441 93.6868 68.1474 93.7981 67.7332C93.7981 67.733 93.7982 67.7328 93.7982 67.7326L93.3154 67.6028M95.0855 72.9698L93.5298 66.8468C93.45 67.0113 93.4112 67.1871 93.3722 67.3635C93.3546 67.4435 93.3369 67.5236 93.3154 67.6028M93.3154 67.6028C93.0657 68.531 93.2287 69.3238 94.4756 69.7626M93.3154 67.6028L94.4756 69.7626M94.4756 69.7626C95.2686 70.0429 95.4522 70.5932 95.3171 71.1665L94.4756 69.7626ZM102.488 61.3893V60.952C102.45 60.5683 102.325 60.3465 102.141 60.1989C101.935 60.0338 101.586 59.9041 100.996 59.8608C99.9473 59.7898 98.9982 59.9755 98.1268 60.4297C97.7687 60.6188 97.2282 60.8375 96.7105 60.8127L102.488 61.3893ZM102.488 61.3893C102.169 62.8028 102.374 64.1447 103.201 65.4658L102.488 61.3893Z" fill="#11B0C8" stroke="#87F54E"/>
<path d="M96.3872 54.2787C96.1729 54.1417 95.9591 54.0067 95.7465 53.8723C95.1133 53.4721 94.4897 53.0781 93.8892 52.6592C93.3188 52.2578 93.0281 51.8246 92.9118 51.3948C92.7942 50.9604 92.8391 50.4709 93.0459 49.9347C93.3764 49.0963 93.8934 48.274 94.464 47.4506L94.4647 47.4496C94.7581 47.0242 95.0163 46.5562 95.0597 46.0364C95.1055 45.4876 94.9071 44.9694 94.4746 44.4614C93.8892 43.7633 94.0697 42.7062 94.9524 41.9391C95.7452 41.25 96.8106 40.9077 98.0189 40.7994L98.019 40.7994C99.4118 40.6743 100.488 41.8311 100.315 42.9452L100.314 42.9495C100.267 43.2674 100.194 43.569 100.105 43.9303C100.061 44.1116 100.013 44.3079 99.9627 44.5288L99.8078 45.212L100.504 45.1365C101.769 44.9995 102.638 45.2199 103.112 45.5894C103.341 45.7682 103.484 45.9852 103.55 46.2366C103.617 46.492 103.611 46.8146 103.488 47.2087C102.932 48.9712 102.605 50.7352 102.435 52.5285C102.38 53.0995 102.19 53.5884 101.859 53.9809C101.528 54.3735 101.031 54.6996 100.314 54.9025L100.314 54.9026C98.9239 55.2971 97.5695 55.0328 96.3872 54.2787ZM96.3872 54.2787L96.1181 54.6998L96.3869 54.2785C96.387 54.2786 96.3871 54.2786 96.3872 54.2787Z" fill="#11B0C8" stroke="#87F54E"/>
<mask id="path-12-inside-4_0_291" fill="white">
<path d="M471.704 123.17V123.418H470.794V125.273H470.425V123.418H469.513V123.17"/>
</mask>
<path d="M471.704 123.17V123.418H470.794V125.273H470.425V123.418H469.513V123.17" fill="#11B0C8"/>
<path d="M471.704 123.418V124.418H472.704V123.418H471.704ZM470.794 123.418V122.418H469.794V123.418H470.794ZM470.794 125.273V126.273H471.794V125.273H470.794ZM470.425 125.273H469.425V126.273H470.425V125.273ZM470.425 123.418H471.425V122.418H470.425V123.418ZM469.513 123.418H468.513V124.418H469.513V123.418ZM470.704 123.17V123.418H472.704V123.17H470.704ZM471.704 122.418H470.794V124.418H471.704V122.418ZM469.794 123.418V125.273H471.794V123.418H469.794ZM470.794 124.273H470.425V126.273H470.794V124.273ZM471.425 125.273V123.418H469.425V125.273H471.425ZM470.425 122.418H469.513V124.418H470.425V122.418ZM470.513 123.418V123.17H468.513V123.418H470.513Z" fill="#87F54E" mask="url(#path-12-inside-4_0_291)"/>
<mask id="path-14-inside-5_0_291" fill="white">
<path d="M471.953 123.17H472.472L473.252 124.947L474.024 123.17H474.539V125.273H474.199V124.043L474.202 123.815V123.499L473.429 125.273H473.069L472.278 123.499V123.561L472.298 123.798V125.273H471.953"/>
</mask>
<path d="M471.953 123.17H472.472L473.252 124.947L474.024 123.17H474.539V125.273H474.199V124.043L474.202 123.815V123.499L473.429 125.273H473.069L472.278 123.499V123.561L472.298 123.798V125.273H471.953" fill="#11B0C8"/>
<path d="M472.472 123.17L473.387 122.768L473.125 122.17H472.472V123.17ZM473.252 124.947L472.336 125.349L473.256 127.446L474.169 125.346L473.252 124.947ZM474.024 123.17V122.17H473.368L473.107 122.771L474.024 123.17ZM474.539 123.17H475.539V122.17H474.539V123.17ZM474.539 125.273V126.273H475.539V125.273H474.539ZM474.199 125.273H473.199V126.273H474.199V125.273ZM474.199 124.043L473.199 124.03V124.043H474.199ZM474.202 123.815L475.202 123.828V123.815H474.202ZM474.202 123.499H475.202L473.285 123.1L474.202 123.499ZM473.429 125.273V126.273H474.084L474.346 125.673L473.429 125.273ZM473.069 125.273L472.156 125.681L472.421 126.273H473.069V125.273ZM472.278 123.499L473.191 123.092L471.278 123.499H472.278ZM472.278 123.561H471.278V123.605L471.282 123.648L472.278 123.561ZM472.298 123.798H473.298V123.755L473.295 123.712L472.298 123.798ZM472.298 125.273V126.273H473.298V125.273H472.298ZM471.953 124.17H472.472V122.17H471.953V124.17ZM471.556 123.571L472.336 125.349L474.167 124.545L473.387 122.768L471.556 123.571ZM474.169 125.346L474.941 123.568L473.107 122.771L472.334 124.548L474.169 125.346ZM474.024 124.17H474.539V122.17H474.024V124.17ZM473.539 123.17V125.273H475.539V123.17H473.539ZM474.539 124.273H474.199V126.273H474.539V124.273ZM475.199 125.273V124.043H473.199V125.273H475.199ZM475.199 124.056L475.202 123.828L473.202 123.802L473.199 124.03L475.199 124.056ZM475.202 123.815V123.499H473.202V123.815H475.202ZM473.285 123.1L472.512 124.874L474.346 125.673L475.119 123.899L473.285 123.1ZM473.429 124.273H473.069V126.273H473.429V124.273ZM473.983 124.866L473.191 123.092L471.365 123.907L472.156 125.681L473.983 124.866ZM471.278 123.499V123.561H473.278V123.499H471.278ZM471.282 123.648L471.302 123.885L473.295 123.712L473.274 123.475L471.282 123.648ZM471.298 123.798V125.273H473.298V123.798H471.298ZM472.298 124.273H471.953V126.273H472.298V124.273Z" fill="#87F54E" mask="url(#path-14-inside-5_0_291)"/>
</g>
<defs>
<filter id="filter0_d_0_291" x="0" y="0" width="556.506" height="150.705" filterUnits="userSpaceOnUse" color-interpolation-filters="sRGB">
<feFlood flood-opacity="0" result="BackgroundImageFix"/>
<feColorMatrix in="SourceAlpha" type="matrix" values="0 0 0 0 0 0 0 0 0 0 0 0 0 0 0 0 0 0 127 0" result="hardAlpha"/>
<feOffset/>
<feGaussianBlur stdDeviation="7.5"/>
<feComposite in2="hardAlpha" operator="out"/>
<feColorMatrix type="matrix" values="0 0 0 0 0.529412 0 0 0 0 0.960784 0 0 0 0 0.305882 0 0 0 1 0"/>
<feBlend mode="normal" in2="BackgroundImageFix" result="effect1_dropShadow_0_291"/>
<feBlend mode="normal" in="SourceGraphic" in2="effect1_dropShadow_0_291" result="shape"/>
</filter>
</defs>
</svg>
